<svg xmlns="http://www.w3.org/2000/svg" width="80" viewBox="0 0 180.43 185.48"><defs><style>.clas-2{fill:#ffcb05;}.cls-2{fill:#ffcc06;}</style></defs><g id="Layer_2" data-name="Layer 2"><g id="Layer_1-2" data-name="Layer 1"><polygon class="clas-2" points="90.21 60.03 107.53 90.03 142.18 90 90.21 0 38.25 90 72.89 90.03 90.21 60.03"/><path class="clas-2" d="M99.56,95.23a9.35,9.35,0,0,1-18.69,0H71.52l18.69,32.39,18.7-32.39Z"/><path class="clas-2" d="M99.56,95.23h0a9.35,9.35,0,1,0-18.69,0H99.56Z"/><path class="cls-2" d="M159.5,95.23v0a69.29,69.29,0,0,1-138.57,0v0H0v0a90.23,90.23,0,0,0,173.33,35.12,89.68,89.68,0,0,0,7.1-35.12v0Z"/></g></g></svg>