<svg xmlns="http://www.w3.org/2000/svg" width="220" viewBox="0 0 974.36 185.48"><defs><style>.cls-1{fill:#fff;}.cls-2{fill:#ffcb05;}.cls-3{fill:#ffcc06;}</style></defs><g id="Layer_2" data-name="Layer 2"><g id="Layer_1-2" data-name="Layer 1"><path class="cls-1" d="M298.3,75l-29.89,39.85H265l-29.24-40v66.72h-17.3V49.87h19.92L267.1,89.33l28.71-39.46h19.8v91.76H298.3Z"/><path class="cls-1" d="M448.28,96.14c-.27,23.73-14.82,47.46-47.07,47.46S354,120.4,354,96.28,369.49,47.9,401.21,47.9,448.54,72.15,448.28,96.14Zm-77.22.4c.4,15.07,8.52,31.2,30.15,31.2s29.76-16.26,30-31.33c.27-15.47-8.39-32.78-30-32.78S370.67,81.07,371.06,96.54Z"/><path class="cls-1" d="M568.62,141.5H548L521.3,110.83H504.65V141.5H487.34V49.61c14.55,0,29.11.13,43.66.13,21.63.13,33,14.55,33,30.41,0,12.59-5.77,25.3-23.2,28.84l27.79,31.33Zm-64-75.64V95.23H531c11,0,15.73-7.34,15.73-14.69S541.88,65.86,531,65.86Z"/><path class="cls-1" d="M602.05,141.5V49.74h17.17V141.5Z"/><path class="cls-1" d="M736.29,76.35c0,7.08-3.41,13.9-11.93,17.7,10.75,3.27,14.69,14.68,14.69,20.45,0,20.45-15.34,27-34.35,27H661.18V49.74H704.7C722.79,49.74,736.29,57.87,736.29,76.35ZM678.22,86.57H704.7c10.88,0,14.42-4.58,14.42-9.83,0-4.19-3.41-11.27-14.42-11.27H678.22Zm0,38.81H704.7c7.08,0,17.17-2.36,17.17-11,0-8.26-10.09-12.59-17.17-12.59H678.22Z"/><path class="cls-1" d="M858,49.87v52.57c0,27.13-16.65,41-39.72,41-22,0-40.77-13.37-40.77-41V49.87h17.17v52.57c0,16.52,9.44,25.3,23.73,25.3s22.42-9.57,22.42-25.3V49.87Z"/><path class="cls-1" d="M957.71,71.89c-3.14-5.24-11.79-10.22-21.76-10.22-12.84,0-19,5.37-19,12.19,0,8,9.44,10.22,20.45,11.54,19.14,2.35,37,7.34,37,29.23,0,20.45-18.09,29.23-38.54,29.23-18.74,0-33.16-5.77-40-22.55l14.42-7.47c4.06,10.1,14.68,14.55,25.82,14.55,10.88,0,21.11-3.8,21.11-13.76,0-8.65-9.05-12.19-21.24-13.5-18.75-2.23-36.05-7.21-36.05-27.8,0-18.87,18.62-26.61,35.53-26.74,14.29,0,29.1,4.07,36.05,18.22Z"/><polygon class="cls-2" points="90.21 60.03 107.53 90.03 142.18 90 90.21 0 38.25 90 72.89 90.03 90.21 60.03"/><path class="cls-2" d="M99.56,95.23a9.35,9.35,0,0,1-18.69,0H71.52l18.69,32.39,18.7-32.39Z"/><path class="cls-2" d="M99.56,95.23h0a9.35,9.35,0,1,0-18.69,0H99.56Z"/><path class="cls-3" d="M159.5,95.23v0a69.29,69.29,0,0,1-138.57,0v0H0v0a90.23,90.23,0,0,0,173.33,35.12,89.68,89.68,0,0,0,7.1-35.12v0Z"/></g></g></svg>