<svg xmlns="http://www.w3.org/2000/svg" width="220" viewBox="0 0 1578.72 287.61"><defs><style>.cls-1{fill:#181818;}.cls-2{fill:#ffcb05;}.cls-3{fill:#ffcc06;}</style></defs><g id="Layer_2" data-name="Layer 2"><g id="Layer_1-2" data-name="Layer 1"><path class="cls-1" d="M463.6,135.43l-49.3,65.74h-5.62l-48.22-65.95V245.28H331.92V93.92h32.87L412.14,159l47.35-65.08h32.65V245.28H463.6Z"/><path class="cls-1" d="M711,170.25c-.43,39.13-24.43,78.27-77.62,78.27s-77.85-38.27-77.85-78.06S581,90.68,633.35,90.68C685.46,90.68,711.41,130.68,711,170.25Zm-127.36.65c.65,24.86,14.06,51.46,49.74,51.46s49.08-26.82,49.51-51.68c.43-25.52-13.83-54.06-49.51-54.06S583,145.38,583.61,170.9Z"/><path class="cls-1" d="M909.48,245.06h-34l-44.11-50.6H804v50.6H775.41V93.48c24,0,48,.22,72,.22,35.68.22,54.49,24,54.49,50.17,0,20.76-9.52,41.73-38.28,47.57l45.85,51.68ZM804,120.3v48.43h43.46c18.16,0,26-12.11,26-24.21s-8-24.22-26-24.22Z"/><path class="cls-1" d="M964.61,245.06V93.7h28.33V245.06Z"/><path class="cls-1" d="M1186,137.6c0,11.67-5.63,22.92-19.68,29.19,17.73,5.4,24.22,24.22,24.22,33.73,0,33.73-25.3,44.54-56.65,44.54h-71.79V93.7h71.79C1163.76,93.7,1186,107.11,1186,137.6Zm-95.79,16.86h43.68c17.94,0,23.78-7.57,23.78-16.21,0-6.93-5.62-18.6-23.78-18.6h-43.68Zm0,64h43.68c11.67,0,28.32-3.9,28.32-18.17,0-13.62-16.65-20.76-28.32-20.76h-43.68Z"/><path class="cls-1" d="M1386.7,93.92v86.71c0,44.76-27.46,67.67-65.52,67.67-36.32,0-67.24-22.05-67.24-67.67V93.92h28.32v86.71c0,27.24,15.57,41.73,39.14,41.73s37-15.79,37-41.73V93.92Z"/><path class="cls-1" d="M1551.26,130.24c-5.19-8.64-19.46-16.86-35.9-16.86-21.19,0-31.35,8.87-31.35,20.11,0,13.19,15.57,16.86,33.73,19,31.57,3.89,61,12.11,61,48.21,0,33.74-29.84,48.22-63.57,48.22-30.92,0-54.71-9.51-66-37.19L1473,199.44c6.7,16.65,24.22,24,42.6,24,18,0,34.81-6.27,34.81-22.71,0-14.26-14.92-20.1-35-22.27-30.92-3.67-59.46-11.89-59.46-45.84,0-31.13,30.71-43.89,58.6-44.11,23.57,0,48,6.71,59.46,30.06Z"/><polygon class="cls-2" points="123.65 94.65 153.38 146.13 208.02 146.13 123.65 0 39.28 146.13 93.93 146.13 123.65 94.65"/><path class="cls-3" d="M221.31,164A97.66,97.66,0,0,1,26,164H0a123.65,123.65,0,0,0,211.09,87.43A122.8,122.8,0,0,0,247.31,164Z"/><path class="cls-2" d="M142.71,164a19.06,19.06,0,0,1-38.11,0H85.54l38.11,66,38.11-66Z"/><path class="cls-2" d="M138.65,164h4.06a19.06,19.06,0,1,0-38.11,0h34.05Z"/></g></g></svg>