<svg id="Layer_1_copy" height="512" viewBox="0 0 64 64" width="512" xmlns="http://www.w3.org/2000/svg" data-name="Layer 1 copy"><path d="m22 13-3 27-18 14v-26l7-2 3-7 4.26-2.32z" fill="#c76b28"/><path d="m63 32-1 18-20-4-18-44h17s11 1 14 11z" fill="#c76b28"/><path d="m18 41 6-39s15 1 19 14l4 31" fill="#e29243"/><path d="m64 50v14h-64v-14.67l6.79-.33 12.21-9 43 10z" fill="#75732f"/><path d="m64 50v4.76c-8.09-.37-19.52-1.32-25-3.76a28.524 28.524 0 0 0 -17-2c-9.15 5.92-16.85 6.92-22 6.57v-6.24l6.79-.33 12.21-9 43 10z" fill="#adae35"/><path d="m15.26 16.68-.69 2.65-3.57 13.67-6-2h-4v-3l7-2 3-7z" fill="#e29243"/><path d="m63 32v13c-.65-.88-2.32-2.53-3-3.58a57.386 57.386 0 0 1 -8-19.42 34.9 34.9 0 0 0 -9.44-17.69 32.614 32.614 0 0 0 -2.51-2.31h.95s11 1 14 11z" fill="#83441d"/><g fill="#12374c"><path d="m39 41a1 1 0 0 1 -1-1v-3a1 1 0 0 1 2 0v3a1 1 0 0 1 -1 1z"/><path d="m38 34a1 1 0 0 1 -1-1v-3a1 1 0 0 1 2 0v3a1 1 0 0 1 -1 1z"/><path d="m37 27a1 1 0 0 1 -1-1v-3a1 1 0 0 1 2 0v3a1 1 0 0 1 -1 1z"/><path d="m47 48a1 1 0 0 1 -.99-.872l-3.991-30.914c-3.229-10.328-13.974-12.644-17.177-13.109l-2.469 16.047a1 1 0 0 1 -1.977-.3l2.755-17.911.915.059c.157.011 15.735 1.2 19.889 14.7l.036.166 4 31a1 1 0 0 1 -.864 1.12 1.157 1.157 0 0 1 -.127.014z"/><path d="m18 42a1.018 1.018 0 0 1 -.153-.012 1 1 0 0 1 -.836-1.141l2.769-18a1 1 0 0 1 1.977.3l-2.769 18a1 1 0 0 1 -.988.853z"/><path d="m1 55a1 1 0 0 1 -1-1v-26a1 1 0 0 1 .725-.962l6.543-1.869 2.813-6.562a1 1 0 0 1 .44-.484l11-6a1 1 0 0 1 .958 1.756l-10.7 5.834-2.86 6.681a1 1 0 0 1 -.644.568l-6.275 1.792v25.246a1 1 0 0 1 -1 1z"/><path d="m34 3h-10a1 1 0 0 1 0-2h10a1 1 0 0 1 0 2z"/><path d="m64 51.205-6.184-1.16a1 1 0 1 1 .368-1.965l3.816.715v-16.595l-7.958-18.913c-2.764-9.214-12.713-10.252-13.135-10.287h-2.907a1 1 0 0 1 0-2h3c.207.015 11.763 1.184 14.943 11.66l8.057 19.14z"/><path d="m54 49.313a1 1 0 0 1 -.185-.018l-7-1.312a1 1 0 1 1 .368-1.965l7 1.313a1 1 0 0 1 -.183 1.982z"/><path d="m14.054 63a1 1 0 0 1 -1-1l-.054-18a1 1 0 0 1 1-1 1 1 0 0 1 1 1l.054 18a1 1 0 0 1 -1 1z"/><path d="m19 50a1 1 0 0 1 -.707-.293l-4.293-4.293-4.293 4.293a1 1 0 0 1 -1.414-1.414l5-5a1 1 0 0 1 1.414 0l5 5a1 1 0 0 1 -.707 1.707z"/><path d="m19 58a1 1 0 0 1 -.707-.293l-4.293-4.293-4.293 4.293a1 1 0 0 1 -1.414-1.414l5-5a1 1 0 0 1 1.414 0l5 5a1 1 0 0 1 -.707 1.707z"/><path d="m29.054 63a1 1 0 0 1 -1-1v-18a1 1 0 0 1 2 0v18a1 1 0 0 1 -1 1z"/><path d="m34 50a1 1 0 0 1 -.707-.293l-4.293-4.293-4.293 4.293a1 1 0 0 1 -1.414-1.414l5-5a1 1 0 0 1 1.414 0l5 5a1 1 0 0 1 -.707 1.707z"/><path d="m34 58a1 1 0 0 1 -.707-.293l-4.293-4.293-4.293 4.293a1 1 0 0 1 -1.414-1.414l5-5a1 1 0 0 1 1.414 0l5 5a1 1 0 0 1 -.707 1.707z"/><path d="m45 63a1 1 0 0 1 -1-1v-10a1 1 0 0 1 2 0v10a1 1 0 0 1 -1 1z"/><path d="m50 58a1 1 0 0 1 -.707-.293l-4.293-4.293-4.293 4.293a1 1 0 0 1 -1.414-1.414l5-5a1 1 0 0 1 1.414 0l5 5a1 1 0 0 1 -.707 1.707z"/><path d="m63 63h-62a1 1 0 0 1 0-2h62a1 1 0 0 1 0 2z"/><path d="m7.125 42h-.969a1 1 0 0 1 0-2h.969a1 1 0 0 1 0 2z"/><path d="m11 42h-.969a1 1 0 0 1 0-2h.969a1 1 0 0 1 0 2z"/></g></svg>