<svg id="Filled" height="512" viewBox="0 0 512 512" width="512" xmlns="http://www.w3.org/2000/svg"><path d="m216 160 86.445-104.968a32 32 0 0 1 50.065.831l135.49 176.137v88h-280z" fill="#5f8c66"/><path d="m387.13 100.87-17.318 17.318a16 16 0 0 1 -20.913 1.486l-20.899-15.674-21.732 16.3a16 16 0 0 1 -20.013-.653l-21.7-18.606 37.89-46.01a32.007 32.007 0 0 1 50.07.83z" fill="#88c791"/><path d="m174.246 138.923-46.246 77.077-9.652-5.791a32 32 0 0 0 -45.418 13.814l-48.93 103.977v40h312v-72l-107.853-158.607a32 32 0 0 0 -53.901 1.53z" fill="#6a9c72"/><path d="m257.3 180.25-24.122 20.1a16 16 0 0 1 -19.118 1.021l-14.06-9.371-14.06 9.373a16 16 0 0 1 -19.118-1.021l-19.622-16.352 27.05-45.08a32 32 0 0 1 53.9-1.53z" fill="#88c791"/><path d="m24 384s216-120 464-152v224h-464z" fill="#a0ab65"/><path d="m416 376a8 8 0 0 1 -8-8v-56a8 8 0 0 1 16 0v56a8 8 0 0 1 -8 8z" fill="#6a9c72"/><path d="m456 312h-72l32-104z" fill="#88c791"/><path d="m344 392a8 8 0 0 1 -8-8v-64a8 8 0 0 1 16 0v64a8 8 0 0 1 -8 8z" fill="#6a9c72"/><path d="m384 328h-80l40-136z" fill="#88c791"/><path d="m400 488c-64-80-192-152-288-152-48.662 0-88 16-88 16v136z" fill="#b1bd70"/><path d="m192 488s56-128 296-128v128z" fill="#cfdb8c"/><path d="m168 64a24.015 24.015 0 0 1 -31.2 22.9 40.007 40.007 0 0 1 -65.6 0 24 24 0 1 1 0-45.8 40.007 40.007 0 0 1 65.6 0 24.015 24.015 0 0 1 31.2 22.9z" fill="#a3d4f7"/><path d="m440.051 104.9a8 8 0 0 0 15.9 0c.571-5.049 1.352-11.964 18.42-17.257a8 8 0 0 0 -4.738-15.282c-10.51 3.256-17.263 7.564-21.633 12.25-4.37-4.686-11.123-8.994-21.631-12.253a8 8 0 1 0 -4.738 15.284c17.069 5.292 17.849 12.207 18.42 17.258z"/><path d="m216.051 64.9a8 8 0 0 0 15.9 0c.571-5.049 1.352-11.964 18.42-17.257a8 8 0 1 0 -4.738-15.282c-10.509 3.256-17.263 7.564-21.633 12.25-4.37-4.686-11.124-8.994-21.631-12.252a8 8 0 0 0 -4.738 15.282c17.069 5.293 17.849 12.208 18.42 17.259z"/><path d="m494.341 227.122-135.489-176.137a40 40 0 0 0 -62.583-1.04l-64.825 78.717a40 40 0 0 0 -64.058 6.145l-42.13 70.217-2.792-1.675a40 40 0 0 0 -56.773 17.268l-48.93 103.977h.007a7.96 7.96 0 0 0 -.768 3.406v160a8 8 0 0 0 8 8h464a8 8 0 0 0 8-8v-256a8 8 0 0 0 -1.659-4.878zm-198.932 161.4c-47.262-28.859-96.536-48.461-140.884-56.465a1528.107 1528.107 0 0 1 155.931-54.357l-14.131 48.043a8 8 0 0 0 7.675 10.257h32v37.036a351.033 351.033 0 0 0 -40.591 15.49zm148.943-84.522h-49.52l22.009-71.529zm-71.614-42.642q9.962-2.358 19.862-4.526l-10.837 35.223zm.571 58.642h-58.618l29.309-99.647zm-21.309 16h32a8 8 0 0 0 7.675-10.257l-1.689-5.743h18.014v37.215a455.482 455.482 0 0 0 -56 11.177zm72-16h32a8 8 0 0 0 7.467-10.872l-23.709-61.642c13.524-2.388 27-4.511 40.242-6.341v110.917q-28.994.348-56 3.223zm9.912-87.715-10.445-27.157a8 8 0 0 0 -15.113.519l-10.354 33.659c-9.831 2.081-19.8 4.316-29.78 6.682l-16.542-56.245a8 8 0 0 0 -15.35 0l-18.993 64.578-76.276-112.166 24.482-29.728 15.508 13.294a23.859 23.859 0 0 0 30.019.978l16.932-12.699 16.1 12.074a24.123 24.123 0 0 0 31.371-2.229l10.875-10.876 86.894 112.963c-12.971 1.85-26.134 3.986-39.328 6.353zm-125.292-172.168a24 24 0 0 1 37.55.624l30.337 39.438-12.352 12.351a8.036 8.036 0 0 1 -10.457.743l-20.898-15.673a8 8 0 0 0 -9.6 0l-21.731 16.3a7.951 7.951 0 0 1 -10.007-.326l-15.747-13.5zm-127.514 82.922a24 24 0 0 1 40.426-1.147l25.068 36.862-18.543 15.452a8.053 8.053 0 0 1 -9.559.511l-14.059-9.373a8 8 0 0 0 -8.876 0l-14.063 9.373a8.053 8.053 0 0 1 -9.559-.511l-14.359-11.965zm-100.937 84.391a24 24 0 0 1 34.063-10.361l9.652 5.791a8 8 0 0 0 10.976-2.744l14.394-23.991 12.446 10.375a24.139 24.139 0 0 0 28.677 1.532l9.623-6.417 9.622 6.414a24.138 24.138 0 0 0 28.678-1.529l17.339-14.449 48.218 70.908a1560.074 1560.074 0 0 0 -181.637 65.3q-5.182-.259-10.22-.259c-34.771 0-64.635 7.8-80 12.708v-10.919zm-48.169 130.161c11.836-4.079 43.365-13.591 80-13.591 48.43 0 108.4 19.186 166.329 52.956a279.291 279.291 0 0 0 -33.035 20.574c-35.713 25.97-52.435 51.983-58.194 62.47h-155.1zm448 122.409h-274.179c1.57-2.377 3.452-5.063 5.676-7.99 7.984-10.512 22.132-26.374 44.188-42.248 24.848-17.885 54.469-32.145 88.043-42.384 40.052-12.216 85.859-18.71 136.272-19.329z"/><path d="m68 95.75a48 48 0 0 0 71.994 0 32 32 0 1 0 0-63.5 48 48 0 0 0 -71.994 0 32 32 0 1 0 0 63.5zm-20-31.75a16.016 16.016 0 0 1 20.812-15.265 8 8 0 0 0 8.941-3.047 32.009 32.009 0 0 1 52.494 0 8 8 0 0 0 8.941 3.047 16 16 0 1 1 0 30.53 8 8 0 0 0 -8.941 3.047 32.009 32.009 0 0 1 -52.494 0 7.992 7.992 0 0 0 -8.941-3.047 16.016 16.016 0 0 1 -20.812-15.265z"/></svg>