<?xml version="1.0" encoding="iso-8859-1"?>
<!-- Generator: Adobe Illustrator 19.0.0, SVG Export Plug-In . SVG Version: 6.00 Build 0)  -->
<svg width=40 height=40 version="1.1" id="Capa_1" xmlns="http://www.w3.org/2000/svg" xmlns:xlink="http://www.w3.org/1999/xlink" x="0px" y="0px"
	 viewBox="0 0 512 512" style="enable-background:new 0 0 512 512;" xml:space="preserve">
<circle style="fill:#82D8D4;" cx="255.998" cy="256" r="255.998"/>
<path style="fill:#72D3AE;" d="M512,256c0,74.605-31.911,141.75-82.829,188.53c-6.656,6.123-13.625,11.891-20.898,17.283
	c-35.986,26.666-79.203,44.115-126.171,48.87c-8.579,0.867-17.283,1.317-26.101,1.317c-3.145,0-6.28-0.052-9.394-0.178
	c-5.622-0.199-11.201-0.585-16.718-1.149c-46.968-4.744-90.174-22.193-126.16-48.859c-7.272-5.392-14.242-11.159-20.898-17.283
	C31.914,397.75,0.003,330.605,0.003,256L512,256L512,256z"/>
<path style="fill:#995248;" d="M282.103,18.757v491.925c-8.579,0.867-17.283,1.317-26.101,1.317c-3.145,0-6.28-0.052-9.394-0.178
	c-5.622-0.199-11.201-0.585-16.718-1.149V18.757c0-9.446,7.659-17.105,17.105-17.105h18.003
	C274.444,1.652,282.103,9.313,282.103,18.757z"/>
<path style="fill:#B07364;" d="M282.103,18.757v491.925c-8.579,0.867-17.283,1.317-26.101,1.317c-3.145,0-6.28-0.052-9.394-0.178
	V18.757c0-9.446,7.659-17.105,17.105-17.105h1.285C274.444,1.652,282.103,9.313,282.103,18.757z"/>
<g>
	<polygon style="fill:#995248;" points="282.103,74.638 282.103,292.604 246.608,295.288 246.608,77.324 	"/>
	<path style="fill:#995248;" d="M431.491,244.725L72.92,271.859c-20.37,1.541-38.132-13.723-39.675-34.092L22.428,94.815
		C20.886,74.445,36.15,56.683,56.519,55.14L415.09,28.007c14.281-1.08,27.903,6.179,34.966,18.638l39.085,68.927
		c5.444,9.6,6.316,21.13,2.379,31.441l-28.267,74.024C458.145,234.417,445.772,243.644,431.491,244.725z"/>
</g>
<path style="fill:#B07364;" d="M70.089,251.068c-8.343,0-15.373-6.535-16.006-14.878L43.266,93.238
	c-0.325-4.286,1.04-8.442,3.841-11.701c2.801-3.259,6.704-5.234,10.99-5.558l358.571-27.135c0.406-0.03,0.817-0.046,1.224-0.046
	c5.775,0,11.136,3.125,13.989,8.155l39.084,68.926c2.376,4.191,2.754,9.176,1.034,13.678l-28.267,74.023
	c-2.212,5.792-7.636,9.837-13.819,10.305L71.342,251.021C70.925,251.052,70.503,251.068,70.089,251.068z"/>
<g>
	<path style="fill:#703E3E;" d="M94.407,113.904c-0.197-2.771,2.131-5.457,6.089-5.74l26.522-1.894
		c16.757-1.197,30.528,5.909,32.073,27.549l0.056,0.792c1.545,21.64-11.451,30.923-28.869,32.167l-14.778,1.055l2.187,30.612
		c0.254,3.563-3.967,5.721-8.19,6.023c-4.355,0.311-8.71-1.235-8.964-4.797L94.407,113.904z M112.258,122.444l2.282,31.932
		l14.778-1.055c8.578-0.612,13.507-5.872,12.772-16.164l-0.112-1.583c-0.736-10.292-6.363-14.797-14.941-14.184L112.258,122.444z"/>
	<path style="fill:#703E3E;" d="M175.229,192.612c-0.02-0.264,0.074-0.801,0.168-1.339l19.538-84.815
		c0.904-4.044,5.655-6.239,10.538-6.588c5.013-0.358,10.028,1.14,11.498,5.014l31.394,81.177c0.17,0.518,0.331,0.905,0.36,1.301
		c0.292,4.091-5.694,7.568-10.311,7.898c-2.903,0.208-5.213-0.556-6.052-3.016l-6.266-17.191l-30.217,2.158l-3.762,17.907
		c-0.481,2.554-2.657,3.637-5.56,3.845C181.941,199.294,175.53,196.834,175.229,192.612z M221.441,161.857l-14.374-39.688
		l-8.587,41.329L221.441,161.857z"/>
	<path style="fill:#703E3E;" d="M265.022,101.717c-0.197-2.77,1.865-5.439,5.164-5.674l26.126-1.866
		c17.286-1.235,31.744,4.363,33.242,25.343c1.084,15.174-5.722,23.883-15.401,27.625l19.576,30.828
		c0.575,0.622,0.772,1.536,0.81,2.065c0.31,4.354-5.032,9.378-10.047,9.735c-2.374,0.17-4.723-1.121-6.231-3.667l-21.338-35.079
		l-11.083,0.792l2.46,34.439c0.254,3.563-3.836,5.711-8.19,6.023c-4.222,0.302-8.71-1.234-8.964-4.797L265.022,101.717z
		 M282.873,110.256l2.008,28.104l14.515-1.037c8.576-0.612,13.865-4.571,13.121-14.995c-0.745-10.424-6.553-13.723-15.129-13.109
		L282.873,110.256z"/>
	<path style="fill:#703E3E;" d="M353.429,95.401c-0.264-3.695,3.846-5.58,8.2-5.89c4.222-0.302,8.689,0.971,8.954,4.664
		l2.574,36.023l25.729-40.829c1.189-1.941,2.723-2.715,4.57-2.846c4.354-0.31,10.217,3.779,10.528,8.133
		c0.066,0.924,0.02,2.121-0.82,3.374l-21.508,31.243l31.894,41.753c0.726,0.877,1.067,1.913,1.141,2.969
		c0.302,4.222-4.665,8.954-9.679,9.312c-2.243,0.16-4.553-0.604-6.173-2.874l-27.494-35.834l-6.485,9.481l1.848,25.862
		c0.254,3.563-3.967,5.721-8.19,6.023c-4.354,0.311-8.71-1.234-8.964-4.797L353.429,95.401z"/>
</g>
<g>
	<polygon style="fill:#995248;" points="101.358,65.068 108.672,93.28 119.121,59.844 	"/>
	<polygon style="fill:#995248;" points="367.805,243.744 374.074,199.859 381.389,236.43 	"/>
	<polygon style="fill:#995248;" points="115.986,257.328 126.435,216.577 134.794,254.193 145.243,227.026 152.557,253.148 	"/>
	<polygon style="fill:#995248;" points="253.567,283.104 253.567,403.613 264.538,272.133 	"/>
</g>
<g>
	<path style="fill:#4EBF85;" d="M374.578,373.888c-0.278,0-0.559-0.027-0.842-0.082c-2.362-0.462-3.905-2.748-3.448-5.111
		c0.189-1.002,4.212-23.714-15.937-33.415c-2.172-1.046-3.086-3.654-2.04-5.826c1.046-2.171,3.655-3.085,5.826-2.04
		c21.045,10.133,22.756,32.521,20.719,42.944C378.45,372.443,376.624,373.888,374.578,373.888z"/>
	<path style="fill:#4EBF85;" d="M388.537,373.886c-2.052,0-3.881-1.452-4.28-3.542c-0.303-1.58-7.183-38.938,13.422-59.541
		c1.703-1.704,4.469-1.704,6.172,0c1.705,1.704,1.705,4.468,0,6.173c-17.314,17.314-11.085,51.387-11.02,51.729
		c0.449,2.367-1.103,4.652-3.47,5.103C389.084,373.861,388.808,373.886,388.537,373.886z"/>
	<path style="fill:#4EBF85;" d="M400.759,373.249c-2.258,0-4.17-1.74-4.347-4.029c-0.08-1.054-1.82-25.886,13.105-32.282
		c2.216-0.949,4.781,0.076,5.731,2.293s-0.076,4.781-2.292,5.731c-7.633,3.271-8.233,18.507-7.84,23.586
		c0.185,2.403-1.613,4.502-4.016,4.687C400.986,373.245,400.873,373.249,400.759,373.249z"/>
	<path style="fill:#4EBF85;" d="M461.196,317.275c-0.232,0-0.467-0.022-0.703-0.068c-1.974-0.386-3.262-2.296-2.881-4.269
		c0.158-0.837,3.519-19.811-13.314-27.916c-1.815-0.874-2.578-3.053-1.703-4.867c0.874-1.814,3.053-2.577,4.867-1.703
		c17.582,8.466,19.011,27.169,17.31,35.877C464.431,316.067,462.905,317.275,461.196,317.275z"/>
	<path style="fill:#4EBF85;" d="M472.857,317.273c-1.715,0-3.242-1.213-3.576-2.959c-0.254-1.321-6-32.53,11.213-49.743
		c1.423-1.424,3.733-1.424,5.157,0c1.424,1.424,1.424,3.733,0,5.157c-14.464,14.464-9.261,42.93-9.207,43.217
		c0.375,1.977-0.922,3.886-2.899,4.263C473.315,317.252,473.084,317.273,472.857,317.273z"/>
	<path style="fill:#4EBF85;" d="M483.068,316.742c-1.887,0-3.484-1.453-3.631-3.367c-0.068-0.881-1.52-21.626,10.948-26.97
		c1.852-0.792,3.995,0.064,4.788,1.915c0.793,1.852-0.064,3.995-1.915,4.788c-6.377,2.732-6.877,15.461-6.55,19.705
		c0.155,2.008-1.348,3.762-3.355,3.916C483.258,316.737,483.163,316.742,483.068,316.742z"/>
	<path style="fill:#4EBF85;" d="M182.243,322.971c0.197,0,0.398-0.019,0.599-0.059c1.68-0.328,2.776-1.954,2.452-3.634
		c-0.135-0.713-2.996-16.862,11.333-23.762c1.544-0.744,2.194-2.599,1.45-4.143s-2.599-2.193-4.143-1.45
		c-14.965,7.206-16.181,23.127-14.734,30.538C179.489,321.943,180.788,322.971,182.243,322.971z"/>
	<path style="fill:#4EBF85;" d="M172.316,322.97c1.459,0,2.76-1.032,3.044-2.518c0.216-1.123,5.107-27.689-9.544-42.34
		c-1.211-1.212-3.178-1.212-4.389,0c-1.212,1.212-1.212,3.177,0,4.39c12.312,12.312,7.883,36.542,7.837,36.784
		c-0.32,1.683,0.785,3.308,2.467,3.629C171.928,322.951,172.124,322.97,172.316,322.97z"/>
	<path style="fill:#4EBF85;" d="M163.626,322.517c1.606,0,2.965-1.237,3.091-2.865c0.057-0.749,1.295-18.408-9.319-22.956
		c-1.576-0.675-3.4,0.054-4.075,1.63c-0.675,1.576,0.054,3.4,1.63,4.075c5.428,2.326,5.855,13.16,5.576,16.773
		c-0.132,1.709,1.147,3.202,2.856,3.333C163.464,322.514,163.545,322.517,163.626,322.517z"/>
	<path style="fill:#4EBF85;" d="M40.485,351.102c-0.229,0-0.46-0.022-0.692-0.067c-1.94-0.379-3.208-2.258-2.833-4.198
		c0.156-0.823,3.461-19.483-13.094-27.453c-1.785-0.859-2.535-3.002-1.675-4.787c0.859-1.784,3.003-2.534,4.787-1.675
		c17.29,8.325,18.695,26.719,17.022,35.282C43.667,349.915,42.166,351.102,40.485,351.102z"/>
	<path style="fill:#4EBF85;" d="M51.954,351.101c-1.685,0-3.188-1.193-3.517-2.91c-0.25-1.299-5.901-31.99,11.027-48.918
		c1.399-1.4,3.672-1.4,5.071,0c1.401,1.4,1.401,3.671,0,5.072c-14.225,14.225-9.107,42.219-9.054,42.5
		c0.369,1.945-0.906,3.822-2.85,4.193C52.403,351.08,52.177,351.101,51.954,351.101z"/>
	<path style="fill:#4EBF85;" d="M61.996,350.577c-1.856,0-3.426-1.429-3.571-3.31c-0.067-0.866-1.495-21.268,10.767-26.522
		c1.821-0.78,3.929,0.063,4.708,1.884c0.781,1.82-0.063,3.929-1.883,4.708c-6.271,2.686-6.764,15.205-6.442,19.379
		c0.152,1.975-1.325,3.699-3.3,3.851C62.181,350.574,62.089,350.577,61.996,350.577z"/>
	<path style="fill:#4EBF85;" d="M126.299,464.338c-0.332,0-0.67-0.032-1.008-0.098c-2.827-0.553-4.674-3.289-4.127-6.117
		c0.227-1.2,5.042-28.384-19.077-39.997c-2.6-1.252-3.693-4.374-2.441-6.974s4.375-3.692,6.974-2.441
		c25.19,12.129,27.237,38.927,24.8,51.403C130.933,462.607,128.746,464.338,126.299,464.338z"/>
	<path style="fill:#4EBF85;" d="M143.007,464.336c-2.457,0-4.645-1.739-5.123-4.239c-0.364-1.891-8.597-46.607,16.065-71.27
		c2.039-2.041,5.349-2.041,7.387,0c2.041,2.041,2.041,5.349,0,7.388c-20.724,20.724-13.268,61.509-13.191,61.918
		c0.538,2.833-1.321,5.568-4.153,6.108C143.662,464.304,143.331,464.336,143.007,464.336z"/>
	<path style="fill:#4EBF85;" d="M157.637,463.573c-2.703,0-4.991-2.082-5.203-4.823c-0.097-1.261-2.179-30.985,15.687-38.64
		c2.653-1.136,5.724,0.092,6.86,2.745c1.137,2.652-0.092,5.724-2.744,6.86c-9.137,3.914-9.854,22.152-9.384,28.233
		c0.222,2.877-1.931,5.389-4.808,5.611C157.908,463.568,157.772,463.573,157.637,463.573z"/>
</g>
<g>
</g>
<g>
</g>
<g>
</g>
<g>
</g>
<g>
</g>
<g>
</g>
<g>
</g>
<g>
</g>
<g>
</g>
<g>
</g>
<g>
</g>
<g>
</g>
<g>
</g>
<g>
</g>
<g>
</g>
</svg>
