<?xml version="1.0" encoding="utf-8"?>
<!-- Generator: Adobe Illustrator 24.3.0, SVG Export Plug-In . SVG Version: 6.00 Build 0)  -->
<svg version="1.1" id="Layer_1" width="50" xmlns="http://www.w3.org/2000/svg" xmlns:xlink="http://www.w3.org/1999/xlink" x="0px" y="0px"
	 viewBox="0 0 512 512" style="enable-background:new 0 0 512 512;" xml:space="preserve">
<style type="text/css">
	.blst0{fill:#232323;}
	.blst1{fill:#3A3A3A;}
	.blst2{fill:#191D1E;}
</style>
<g>
	<path class="blst0" d="M186.6,387.4l-0.4-0.2c-4.3-2-8.6-4.1-11.4-5.5l-1.2-0.6l-0.1-1.3c-1.1-22.3-10.2-34.3-17.6-43.9
		c-3.4-4.4-6.6-8.6-8.5-13.3l-0.7-1.7l1.6-1c26-16.3,51-17.6,81-17.6l2.6,0l-0.4,2.6c-2.4,14.9-10.5,30-18.3,44.6
		c-6.8,12.8-13.3,24.9-15.5,36.2l-0.4,1.8L186.6,387.4L186.6,387.4L186.6,387.4z"/>
	<path class="blst0" d="M229.3,304.5c-2.4,14.5-10.3,29.4-18,43.9c-6.9,12.9-13.4,25.2-15.7,36.8h-8.4c-4.1-1.9-8.4-4-11.4-5.5
		c-1.2-23-10.4-35.2-18-45.1c-3.4-4.5-6.4-8.5-8.2-12.8C174.7,306,198.6,304.5,229.3,304.5z"/>
	<path class="blst0" d="M426.1,387.4l-33.8-25.3c-0.6-0.5-1.3-0.8-2.1-1c-36.5-9.9-48.3-55.5-48.8-57.4c-0.1-0.3-0.2-0.6-0.3-0.9
		l-0.6-1.5l1.3-1c15-12.4,26.1-26.5,33.2-42.1l0.4-0.9l1-0.3c4.1-1.2,10-3.3,15.3-6.5l2.4-1.4l0.9,2.6c3.7,10.9,5.5,35.2,5.3,53.5
		c0,1.4,0.5,2.8,1.4,3.9c13.2,16,22.4,34.2,30.5,50.2c4.7,9.2,9.1,18,13.7,24.9l2.3,3.4L426.1,387.4L426.1,387.4z"/>
	<path class="blst0" d="M444.1,385.2h-17.2l-33.2-24.9c-0.8-0.6-1.8-1.1-2.8-1.4c-35.6-9.6-47.1-55.4-47.2-55.8
		c-0.1-0.4-0.2-0.9-0.4-1.2c12.2-10.1,25.3-24.3,33.8-42.9c4.2-1.2,10.3-3.4,15.9-6.8c3.5,10.2,5.4,33.5,5.2,52.7
		c0,2,0.7,3.9,1.9,5.4c13,15.8,22.2,33.8,30.2,49.8C435,369.6,439.4,378.3,444.1,385.2z"/>
</g>
<g>
	<path class="blst1" d="M271.1,387.4c-2.4,0-4.7-0.9-6.4-2.6c-1.7-1.7-2.6-4-2.6-6.4v-20.3c0-1.2-0.3-2.3-0.9-3.2
		c-36.1-57-2-97.2-0.6-98.9c2.2-2.5,2-6.4-0.5-8.6c-1.1-1-2.5-1.5-4-1.5c-1.7,0-3.4,0.7-4.6,2c-0.4,0.5-10.8,12.3-16.1,32.4
		c-0.7,2.7-1.3,5.5-1.7,8.2l-0.4,2.4l-2.3-0.6c-0.5-0.1-1-0.2-1.5-0.2c-41,0-73,2.7-110.3,37c-21.9,20.2-56.8,33.8-75.5,33.8
		c-3.4,0-6.1,2.7-6.1,6.1v20.5h-7.5l-14.7-36.7l14.9-14.9c0.7-0.7,1.2-1.6,1.5-2.5c12.7-41.6,53-153.8,85.8-173.5
		c13-7.8,50.6-18.7,82.4-18.7c7.2,0,13.8,0.6,19.4,1.7c8.5,1.7,16.4,2.5,23.7,2.5c19.3,0,31.4-5.7,43.2-11.3
		c10.1-4.8,18.8-8.9,31.6-8.9c9.9,0,17,4.8,23.9,9.3c6.2,4.1,12.6,8.3,20.3,8.3c9.6,0,16.5-2.5,22.5-4.8c3-1.1,6.1-2.2,9.5-3
		l2.4-0.5l0.3,2.4c0.9,6.6,4.2,11.8,4.4,12c1.1,1.8,3.1,2.8,5.2,2.8c1.2,0,2.3-0.3,3.2-1c2.8-1.8,3.7-5.6,1.9-8.4
		c-1.2-1.9-3.8-7.5-2.3-11.6c0.9-2.6,3.6-4.6,7.9-6c1-0.3,1.9-0.5,2.7-0.5c1.9,0,3,0.8,3.7,1.5c2.8,2.5,3.9,7.3,3.5,9.4
		c-0.8,3.3,1.2,6.6,4.4,7.5c0.5,0.1,1,0.2,1.5,0.2c2,0,3.9-1,5-2.7l1.1-1.6l1.7,0.8c31.4,15.2,32.6,29.1,33.3,38.3
		c0.1,1.4,0.2,2.6,0.4,3.8c0.3,1.9,1.2,7.8,20.4,19.1l1.5,0.9l-4.9,15.2l-1.2,0.3c-4,0.9-11,2.1-21.9,2.1c-6.9,0-19.7,0-28.6,8.3
		l-0.6,0.6h-33c-7.2,0-13.4-5.1-14.8-12.1l-3.7-18.4c-0.6-2.8-3.1-4.9-6-4.9c-0.4,0-0.8,0-1.2,0.1c-1.6,0.3-3,1.2-3.9,2.6
		c-0.9,1.4-1.2,3-0.9,4.6l3.7,18.4c1.2,6.1,4.6,11.7,9.5,15.7l2,1.7l-2,1.7c-3.9,3.3-11.7,6.8-19.1,8.5c-2,0.4-3.6,1.8-4.3,3.7
		c-15.7,39.1-56.9,57.8-58.7,58.6c-2,0.9-3.4,2.8-3.7,4.9l-8.2,74.2L271.1,387.4L271.1,387.4L271.1,387.4z"/>
	<path class="blst1" d="M493.7,202.8l-4,12.4c-3.6,0.9-10.5,2-21.4,2c-6.9,0-20.6,0-30.1,8.8h-32.1c-6.1,0-11.4-4.4-12.6-10.4
		l-3.7-18.4c-0.9-4.5-5.3-7.4-9.8-6.5c-4.5,0.9-7.4,5.3-6.5,9.8l3.7,18.4c1.4,6.9,5.1,12.8,10.2,17c-3.4,3-10.9,6.4-18.2,8
		c-2.7,0.6-4.9,2.5-5.9,5c-15.6,38.8-57.1,57.2-57.5,57.4c-2.7,1.2-4.6,3.7-5,6.7l-8,72.2h-21.7c-1.8,0-3.5-0.7-4.8-2
		c-1.3-1.3-2-3-2-4.8v-20.3c0-1.6-0.4-3.1-1.3-4.4c-35.2-55.5-2.3-94.5-0.8-96.2c3-3.4,2.7-8.6-0.7-11.7c-3.4-3-8.7-2.7-11.7,0.7
		c-0.5,0.5-11.2,12.8-16.5,33.3c-0.7,2.6-1.3,5.4-1.8,8.4c-0.7-0.2-1.3-0.3-2-0.3c-41.5,0-73.9,2.7-111.8,37.6
		c-21.6,19.9-55.7,33.2-74,33.2c-4.6,0-8.3,3.7-8.3,8.3v18.2h-3.8L18,351.3l13.8-13.8c1-1,1.7-2.1,2.1-3.4
		c12.7-41.4,52.6-152.9,84.8-172.2c16.1-9.7,68.3-23.1,100.3-16.7c34.7,6.9,52.5-1.5,68.3-8.9c9.9-4.6,18.4-8.7,30.7-8.7
		c9.2,0,15.8,4.4,22.7,9c6.5,4.3,13.1,8.7,21.5,8.7c10,0,17.1-2.6,23.3-4.9c3.2-1.2,6.1-2.2,9.3-3c0.9,6.8,4.2,12.1,4.7,12.9
		c1.6,2.5,4.3,3.8,7,3.8c1.5,0,3.1-0.4,4.4-1.3c3.9-2.5,5-7.6,2.5-11.4c-1.1-1.8-3.2-6.6-2.1-9.6c0.9-2.3,4-3.8,6.5-4.6
		c2.5-0.8,3.5-0.2,4.2,0.5c2.3,2,3.1,6.1,2.8,7.3c-1.1,4.4,1.6,8.9,6,10.1c3.5,0.9,7-0.6,8.9-3.4c30.2,14.6,31.3,27.6,32.1,36.5
		c0.1,1.4,0.2,2.7,0.4,3.9C472.7,184.6,473.6,190.8,493.7,202.8z"/>
</g>
<path class="blst2" d="M507.7,191.6c3.5,1.9,5.1,6,3.9,9.8l-7.4,22.8c-0.7,2.2-2.3,4-4.3,4.9c-1.6,0.8-10.5,4.5-31.6,4.5
	c-5.8,0-15.5,0-20,5.7c-1.6,2-4,3.1-6.5,3.1h-35c7.2,15.5,7.9,47.7,7.9,59.6c13.2,16.7,22.7,35.3,30.3,50.5
	c8.1,16,16.5,32.6,23.3,32.6h8.8c4.6,0,8.3,3.7,8.3,8.3c0,4.6-3.7,8.3-8.3,8.3h-53.1c-1.8,0-3.5-0.6-5-1.7L385,374.5
	c-36.2-10.7-51.4-48.2-55.9-62.3c-5,3.2-9.3,5.6-12.3,7.1l-7.3,65.8h8.4c4.6,0,8.3,3.7,8.3,8.3c0,4.6-3.7,8.3-8.3,8.3h-46.8
	c-6.2,0-12.1-2.4-16.5-6.8c-4.4-4.4-6.9-10.3-6.9-16.5v-17.9c-5.2-8.4-8.9-16.6-11.6-24.4c-3.2,6.9-6.8,13.6-10.2,20
	c-5.6,10.5-10.9,20.5-13.3,29h16.9c4.6,0,8.3,3.7,8.3,8.3c0,4.6-3.7,8.3-8.3,8.3h-44.2c-1.2,0-2.4-0.3-3.5-0.8c0,0-4.5-2.1-8.9-4.3
	c-2.6-1.3-4.7-2.3-6.3-3.1c-3.2-1.7-7.3-3.7-7.3-9c0-20.6-7.2-30.1-14.7-40c-3.1-4-6.2-8.2-8.7-12.9c-2.3,1.9-4.6,3.9-6.9,6
	c-17.7,16.3-50.5,33.8-76.9,37v10.5h0.6c4.6,0,8.3,3.7,8.3,8.3c0,4.6-3.7,8.3-8.3,8.3H26c-3.4,0-6.4-2.1-7.7-5.2L0.6,352.4
	c-1.2-3.1-0.5-6.6,1.8-8.9l16.2-16.2c2.6-8.4,13.5-42.1,28.1-77.7c23.1-56.2,44.4-90.5,63.4-101.9c20.7-12.4,76.9-25.7,112.1-18.7
	c29.3,5.9,43.2-0.7,58-7.6c10.7-5,21.7-10.2,37.7-10.2c14.2,0,24,6.5,31.9,11.7c4.8,3.2,9,5.9,12.3,5.9c7,0,11.9-1.8,17.5-3.9
	c5.4-2,11.5-4.2,19.6-4.8c2.7-3.3,6.8-6.4,13.4-8.6c7.8-2.5,15.1-1,20.8,4.2c2.3,2.1,4.1,4.7,5.4,7.4c46.7,19.9,48.6,41.9,49.6,53.7
	c0.1,0.7,0.1,1.3,0.2,1.9C490.8,181.2,499.4,187.1,507.7,191.6z M489.8,215.1l4-12.4c-20.2-11.9-21.1-18.2-21.5-20.7
	c-0.2-1.3-0.3-2.6-0.4-3.9c-0.7-8.9-1.9-21.9-32.1-36.5c-1.9,2.8-5.4,4.2-8.9,3.4c-4.4-1.1-7.1-5.6-6-10.1c0.3-1.2-0.6-5.3-2.8-7.3
	c-0.8-0.7-1.8-1.3-4.2-0.5c-2.5,0.8-5.6,2.3-6.5,4.6c-1.1,3,0.9,7.8,2.1,9.6c2.5,3.9,1.3,9-2.5,11.4c-1.4,0.9-2.9,1.3-4.4,1.3
	c-2.7,0-5.4-1.4-7-3.8c-0.5-0.8-3.8-6.1-4.7-12.9c-3.2,0.7-6.1,1.8-9.3,3c-6.2,2.3-13.3,4.9-23.3,4.9c-8.4,0-15-4.4-21.5-8.7
	c-7-4.6-13.5-9-22.7-9c-12.3,0-20.8,4-30.7,8.7c-15.7,7.4-33.6,15.8-68.3,8.9c-31.9-6.4-84.1,7-100.3,16.7
	C86.5,181.1,46.6,292.7,33.9,334c-0.4,1.3-1.1,2.5-2.1,3.4L18,351.3l13.6,33.9h3.8V367c0-4.6,3.7-8.3,8.3-8.3
	c18.3,0,52.4-13.3,74-33.2c37.9-34.9,70.2-37.6,111.8-37.6c0.7,0,1.4,0.1,2,0.3c0.5-3,1.1-5.8,1.8-8.4c5.4-20.5,16.1-32.8,16.5-33.3
	c3-3.4,8.3-3.7,11.7-0.7c3.4,3,3.7,8.3,0.7,11.7c-1.5,1.7-34.4,40.7,0.8,96.2c0.9,1.3,1.3,2.9,1.3,4.4v20.3c0,1.8,0.7,3.5,2,4.8
	c1.3,1.3,3,2,4.8,2h21.7l8-72.2c0.3-3,2.2-5.5,5-6.7c0.4-0.2,41.9-18.6,57.5-57.4c1-2.5,3.2-4.4,5.9-5c7.3-1.6,14.7-5.1,18.2-8
	c-5.1-4.2-8.8-10.1-10.2-17l-3.7-18.4c-0.9-4.5,2-8.9,6.5-9.8c4.5-0.9,8.9,2,9.8,6.5l3.7,18.4c1.2,6,6.5,10.4,12.6,10.4h32.1
	c9.6-8.8,23.2-8.8,30.1-8.8C479.3,217.1,486.1,216,489.8,215.1z M426.9,385.2h17.2c-4.7-7-9.1-15.6-13.9-25.1
	c-8-15.9-17.2-34-30.2-49.8c-1.2-1.5-1.9-3.4-1.9-5.4c0.2-19.3-1.7-42.5-5.2-52.7c-5.5,3.4-11.7,5.6-15.9,6.8
	c-8.4,18.6-21.5,32.8-33.8,42.9c0.2,0.4,0.3,0.8,0.4,1.2c0.1,0.4,11.6,46.2,47.2,55.8c1,0.3,2,0.7,2.8,1.4L426.9,385.2z
	 M211.2,348.4c7.7-14.5,15.7-29.4,18-43.9c-30.7,0-54.6,1.5-79.8,17.3c1.8,4.4,4.8,8.3,8.2,12.8c7.6,9.9,16.8,22.1,18,45.1
	c2.9,1.5,7.3,3.6,11.4,5.5h8.4C197.8,373.6,204.3,361.3,211.2,348.4z"/>
</svg>
