<?xml version="1.0" encoding="utf-8"?>
<!-- Generator: Adobe Illustrator 24.3.0, SVG Export Plug-In . SVG Version: 6.00 Build 0)  -->
<svg version="1.1" id="Layer_1" width="50" xmlns="http://www.w3.org/2000/svg" xmlns:xlink="http://www.w3.org/1999/xlink" x="0px" y="0px"
	 viewBox="0 0 512 512" style="enable-background:new 0 0 512 512;" xml:space="preserve">
<style type="text/css">
	.cst0{fill:#8C704D;}
	.cst1{fill:#B99365;}
	.cst2{fill:#282828;}
</style>
<g>
	<polygon class="cst0" points="284.7,334.1 290.6,314.6 296.4,326.2 288.6,336.1 	"/>
	<polygon class="cst0" points="291.1,320.6 293.8,326 286.8,334.7 	"/>
	<path class="cst0" d="M57.1,321.8l0.2-0.5c4-10.8,7.3-22.6,10-35c1.7-7.7,3.7-15.6,6-23.6l2.3-8l2,8.1c1.2,5.1,2.9,10.2,5,15.2
		c5.5,12.9,12.5,22,16.2,26.3l0.7,0.8l-0.2,1c-0.4,2.5-1.4,5.6-3,9.4l-0.1,0.2l-0.1,0.2c-3.2,5-10,10.2-16.6,15.2
		c-5.3,4.1-10.8,8.3-15.4,13l-3.1,3.1L57.1,321.8z"/>
	<path class="cst0" d="M97.1,305.7c-0.4,2.5-1.4,5.6-2.8,8.9c-3,4.7-9.6,9.8-16.1,14.7c-5.3,4.1-10.9,8.3-15.7,13.2L59.4,322
		c3.6-10,7.2-21.7,10.1-35.3c1.8-8.2,3.8-16,5.9-23.4c1.4,5.8,3.2,11,5.1,15.5C86.2,291.9,93.3,301.3,97.1,305.7z"/>
</g>
<g>
	<path class="cst1" d="M297.1,300.5l-0.1-0.3c-0.6-2.8-2.2-12.5,0.2-22.7c0.4-1.6,0.1-3.2-0.7-4.6c-0.8-1.4-2.2-2.4-3.8-2.7
		c-0.5-0.1-0.9-0.2-1.4-0.2c-2.8,0-5.3,1.9-5.9,4.7c-1.4,5.8-1.9,12.1-1.5,18.7l0.1,2.1l-2.1,0.3c-3.6,0.5-7.6,0.7-11.9,0.7
		c-27.1,0-62.7-9.1-82.4-17.6l-1.4-0.6l0-1.5c0.2-7.2-1-14.1-2.1-20.2l0-0.2c-0.9-5.5-1.8-10.6-1.8-15.7c0-3.4-2.7-6.1-6.1-6.1
		s-6.1,2.7-6.1,6.1c0,6.2,1,12.2,2,17.9c2,11.5,3.7,21.4-1.5,32.6c-3,6.5-14.8,14.5-27.2,22.9c-15.7,10.6-33.5,22.5-41.9,37.4
		l-1.9,3.4l-1.9-3.5c-1-1.9-2.1-3.7-3.1-5.6l-0.7-1.2l0.7-1.1c3.6-5.5,8.7-13.9,12.4-22.5l0-0.1l0.2-0.4c0.1-0.1,0.2-0.3,0.2-0.4
		c0.3-0.5,0.5-1.1,0.6-1.7l0-0.2l0.1-0.2c2.4-6.3,3.5-11.6,3.3-15.9c-0.1-1.5-0.7-3-1.8-4c-0.4-0.4-37.6-37.2-16.3-90.7
		c1.2-3.1-0.2-6.5-3.2-7.8c-0.8-0.3-1.6-0.5-2.4-0.5c-2.3,0-4.5,1.4-5.5,3.5c-0.7,1.5-17.3,36.2-27,81C47.5,320,35.6,341.5,29.2,351
		l-2.2,3.2l-1.7-3.5c-5-10.6-10.9-27.6-10.9-48.1c0-11,1.3-39.7,12.8-68.5c11.6-28.8,29.8-48.5,54.2-58.6
		c14.2-5.9,28.8-8.7,44.5-8.7c22.5,0,42.9,5.9,61,11c13,3.7,24.2,6.9,33.6,7c2.8,0.1,17.6,0.6,35.4,0.6c6,0,11.8-0.1,17.2-0.2
		c50.5-1.1,62.3-6.8,66.7-11c26.2-24.7,61.2-52.5,61.5-52.7c1.8-1.4,2.6-3.7,2.2-5.9c-2.3-11.9,1.8-24.1,5.7-32.3l1.8-3.8l18.2,31.2
		c0.9,1.5,2.2,3.7,21.2,10.7c13.3,4.9,15.9,19.3,16,19.9c0.3,1.7,1.2,3.2,2.7,4.1l25.1,16.5l-10.6,10.6h-32.9
		c-1.3,0-2.5,0.4-3.6,1.1c-10.3,7.5-43.8,60-71.7,106.7l-0.2,0.3l-43.4,34.7c-1,0.8-1.8,2-2.1,3.2c-0.1,0.5-3.3,12.7-4.4,28.9
		l-0.6,8L297.1,300.5z"/>
	<path class="cst1" d="M490.6,162.4l-8.1,8.1h-31.9c-1.7,0-3.4,0.5-4.9,1.6c-13.6,9.8-60.9,88.4-72.3,107.3l-43.1,34.4
		c-1.4,1.1-2.4,2.7-2.8,4.4c-0.2,0.9-3.3,13.2-4.5,29.2l-23.9-47.7c-0.5-2.6-2.1-12,0.2-21.8c1.1-4.5-1.7-8.9-6.1-10
		c-4.5-1.1-8.9,1.7-10,6.1c-1.7,7.1-1.9,14-1.6,19.4c-27.2,3.4-70.3-6.9-93.2-16.8c0.2-7.3-1-14.2-2.1-20.6
		c-0.9-5.4-1.8-10.6-1.8-15.5c0-4.6-3.7-8.3-8.3-8.3s-8.3,3.7-8.3,8.3c0,6.4,1,12.4,2.1,18.3c1.9,11.1,3.6,20.7-1.3,31.3
		c-2.7,6-14.8,14.1-26.5,21.9c-15.7,10.6-33.9,22.8-42.6,38.1c-1-1.9-2.1-3.7-3.1-5.6c3.5-5.3,8.8-13.9,12.6-22.8
		c0.1-0.3,0.3-0.5,0.4-0.8c0.4-0.7,0.7-1.5,0.8-2.3c2.3-5.9,3.7-11.8,3.5-16.8c-0.1-2.1-1-4-2.5-5.5c-0.4-0.4-36.4-36.5-15.8-88.3
		c1.6-4.2-0.3-8.9-4.4-10.7c-4.1-1.8-8.9,0-10.8,4c-0.7,1.5-17.4,36.6-27.2,81.5c-7.1,32.7-17.9,54.7-25.9,66.6
		c-4.7-10-10.7-26.8-10.7-47.1c0-10.9,1.2-39.3,12.7-67.7c11.4-28.3,29.2-47.6,53-57.4c39.3-16.2,75.2-5.9,104.1,2.4
		c13.1,3.8,24.5,7,34.1,7.1c2.3,0.1,26.9,1,52.7,0.5c50.7-1.1,63.1-6.8,68.2-11.6c26-24.5,61-52.3,61.4-52.6c2.4-1.9,3.6-5.1,3-8.1
		c-2.2-11.1,1.6-22.7,5.5-31l16.1,27.6c1.2,2,2.6,4.3,22.3,11.6c12,4.5,14.5,17.7,14.6,18.2c0.4,2.3,1.7,4.3,3.6,5.6L490.6,162.4z"
		/>
</g>
<path class="cst2" d="M512,160.2c0.3,2.5-0.6,4.9-2.4,6.7l-17.7,17.7c-1.5,1.6-3.7,2.4-5.9,2.4h-32.3c-9.9,10.3-40.7,58.3-66.8,102.1
	c-0.5,0.9-1.2,1.6-1.9,2.2l-42,33.6c-2,9.1-7.6,40,0.3,62.9l24,48h12.6c4.6,0,8.3,3.7,8.3,8.3c0,4.6-3.7,8.3-8.3,8.3h-17.7
	c-3.1,0-6-1.8-7.4-4.6L302,342.3l-28,35.5l-9,30.2l13.9,27.9h12.6c4.6,0,8.3,3.7,8.3,8.3c0,4.6-3.7,8.3-8.3,8.3h-17.7
	c-3.1,0-6-1.8-7.4-4.6l-17.7-35.4c-0.9-1.9-1.1-4.1-0.5-6.1l28.7-95.8c-2.1,0.1-4.2,0.2-6.4,0.2c-28.3,0-63.3-8.7-84.9-17.3
	c-0.5,1.2-1,2.5-1.5,3.8c-4.7,10.2-17.5,18.8-32.3,28.8c-25.3,17.1-44.3,31.4-39.7,48.1c12.7,26.3,22.1,51,26.1,61.8h11.9
	c4.6,0,8.3,3.7,8.3,8.3c0,4.6-3.7,8.3-8.3,8.3h-17.7c-3.5,0-6.7-2.2-7.8-5.6c-0.2-0.6-19.5-55.6-44.4-97.8
	c-7.3,6.1-13.2,12.6-13,19.8c0,0.2,0,0.4,0,0.6l10.5,66.4h10.6c4.6,0,8.3,3.7,8.3,8.3c0,4.6-3.7,8.3-8.3,8.3H70.2
	c-4.1,0-7.6-3-8.2-7l-15.1-96c-8.1,14.4-14.7,20.7-15.3,21.2c-1.8,1.6-4.2,2.4-6.6,2.2c-2.4-0.3-4.6-1.6-5.9-3.5
	C18.4,368.1,0,340.9,0,302.6c0-11.9,1.3-42.8,13.9-73.9c13.1-32.5,34-54.9,62-66.5c44.6-18.4,85.3-6.7,115,1.8
	c12,3.4,22.4,6.4,29.8,6.4c0.1,0,0.2,0,0.3,0c0.3,0,25.1,1,51.4,0.5c49.2-1,56.9-6.5,57.6-7.1c21.5-20.3,48.9-42.6,58.7-50.6
	c-2.3-25.7,15.1-49.4,15.9-50.5c1.7-2.2,4.3-3.5,7.1-3.3c2.8,0.2,5.3,1.7,6.7,4.1l22.3,38.2c1.6,0.8,5.6,2.8,14.7,6.1
	c16.2,6,22.3,20.4,24.3,27.3l28.6,18.9C510.4,155.5,511.7,157.8,512,160.2z M482.6,170.5l8.1-8.1l-22.8-15.1
	c-1.9-1.3-3.3-3.3-3.6-5.6c-0.1-0.5-2.5-13.8-14.6-18.2c-19.7-7.3-21.1-9.6-22.3-11.6l-16.1-27.6c-3.9,8.2-7.7,19.8-5.5,31
	c0.6,3-0.6,6.2-3,8.1c-0.4,0.3-35.4,28.1-61.4,52.6c-5.1,4.8-17.5,10.5-68.2,11.6c-25.8,0.6-50.4-0.4-52.7-0.5
	c-9.6,0-21-3.3-34.1-7.1c-28.9-8.3-64.8-18.6-104.1-2.4c-23.8,9.8-41.6,29.1-53,57.4c-11.4,28.4-12.7,56.8-12.7,67.7
	c0,20.3,6,37.1,10.7,47.1c8-11.9,18.9-33.9,25.9-66.6c9.7-44.9,26.5-80,27.2-81.5c1.9-4,6.7-5.8,10.8-4c4.1,1.8,6,6.5,4.4,10.7
	c-20.6,51.8,15.4,88,15.8,88.3c1.5,1.5,2.4,3.4,2.5,5.5c0.3,5-1.2,10.9-3.5,16.8c-0.2,0.8-0.4,1.5-0.8,2.3c-0.1,0.3-0.3,0.5-0.4,0.8
	c-3.8,8.9-9.1,17.5-12.6,22.8c1.1,1.8,2.1,3.7,3.1,5.6c8.7-15.3,26.9-27.6,42.6-38.1c11.7-7.9,23.7-16,26.5-21.9
	c4.9-10.6,3.2-20.2,1.3-31.3c-1-5.9-2.1-11.9-2.1-18.3c0-4.6,3.7-8.3,8.3-8.3s8.3,3.7,8.3,8.3c0,4.9,0.9,10.1,1.8,15.5
	c1.1,6.4,2.3,13.3,2.1,20.6c22.9,9.9,66,20.1,93.2,16.8c-0.3-5.4-0.2-12.3,1.6-19.4c1.1-4.5,5.5-7.2,10-6.1c4.5,1.1,7.2,5.6,6.1,10
	c-2.3,9.8-0.7,19.2-0.2,21.8l23.9,47.7c1.2-16.1,4.2-28.3,4.5-29.2c0.4-1.7,1.4-3.3,2.8-4.4l43.1-34.4c11.3-19,58.7-97.5,72.3-107.3
	c1.4-1,3.1-1.6,4.9-1.6L482.6,170.5L482.6,170.5L482.6,170.5z M293.8,326l-2.7-5.4l-4.2,14.2L293.8,326z M94.3,314.6
	c1.4-3.3,2.4-6.4,2.8-8.9c-3.8-4.4-11-13.7-16.6-26.9c-1.9-4.5-3.7-9.7-5.1-15.5c-2.1,7.4-4.2,15.3-5.9,23.4
	c-3,13.6-6.5,25.3-10.1,35.3l3.2,20.5c4.8-4.8,10.4-9.1,15.7-13.2C84.7,324.4,91.3,319.3,94.3,314.6z"/>
</svg>
