<?xml version="1.0" encoding="utf-8"?>
<!-- Generator: Adobe Illustrator 24.3.0, SVG Export Plug-In . SVG Version: 6.00 Build 0)  -->
<svg version="1.1" id="Layer_1" width="50" xmlns="http://www.w3.org/2000/svg" xmlns:xlink="http://www.w3.org/1999/xlink" x="0px" y="0px"
	 viewBox="0 0 512 512" style="enable-background:new 0 0 512 512;" xml:space="preserve">
<style type="text/css">
	.lst0{fill:#9B7055;}
	.lst1{fill:#C18A68;}
	.lst2{fill:#282828;}
</style>
<g>
	<path class="lst0" d="M165.8,413.5c-8.1,0-15.8-3.6-20.9-9.9l-51.2-68l2.8-1c7-2.6,13.8-5.5,20.2-8.5l1.9-0.9l37.4,70.8
		c1,1.8,2.9,3.1,5,3.2c9.5,0.7,27.1,4.8,27.1,11.6v2.8L165.8,413.5L165.8,413.5L165.8,413.5z"/>
	<path class="lst0" d="M185.9,410.7v0.6h-20.1c-7.5,0-14.5-3.3-19.2-9.1l-49.3-65.6c7.2-2.7,14-5.6,20.4-8.6l36.4,68.9
		c1.3,2.5,3.9,4.2,6.8,4.4C172.1,402.1,185.9,406.6,185.9,410.7z"/>
	<path class="lst0" d="M422.5,363.4c-1.6,0-3.2-0.6-4.8-1.9c-5.5-4.4-8.3-14-7.1-19.5c1-4.5-2.5-7-6.4-9.1c-2.2-1.1-5.3-2.6-9.5-4.4
		c-6.8-2.9-16.3-6.7-28.2-11.2c-15.5-5.9-30.6-11.4-36.4-13.5l-2-0.7l0.7-2c1-3,2-6,3-9l0.3-0.9l0.8-0.4c4.5-2.3,13.6-7.4,24.5-15.5
		l1.5-1.1l1.3,1.2c5.8,5.2,20.3,15.9,46.8,35c11.1,8,20.4,14.7,22.2,16.3c6.5,5.6,7,13.1,6.2,18.4c-1.2,8.9-6.2,15.7-9.3,17.2
		C424.7,363.1,423.6,363.4,422.5,363.4z"/>
	<path class="lst0" d="M427.5,328.6c5.7,5,6.1,11.7,5.5,16.5c-1.1,8.3-5.8,14.4-8,15.5c-2.2,1.1-3.9,0.8-5.9-0.7
		c-4.8-3.8-7.4-12.6-6.4-17.2c1.5-6.8-4.9-10.1-7.6-11.5c-2.3-1.2-5.4-2.6-9.7-4.4c-6.8-2.9-16.3-6.7-28.3-11.2
		c-14.5-5.5-29.2-10.9-36.5-13.5c1-3,2-6,3-9c4.7-2.4,13.9-7.6,24.8-15.7c5.8,5.2,19.4,15.3,47,35.2
		C415.4,319.6,425.7,327,427.5,328.6z"/>
</g>
<g>
	<path class="lst1" d="M293.4,413.5l-0.6-0.4c-8.6-6.2-18.6-14.8-21.3-19.1l-0.5-0.8l0.2-0.9c0.5-1.9,1.6-4.7,2.7-7.4l0.1-0.2
		c3.9-9.9,9.2-23.3,5.7-37.3c-4.1-16.5-13.7-55.1,7.8-83.3c2-2.7,1.5-6.5-1.1-8.5c-1.1-0.8-2.3-1.2-3.7-1.2c-1.9,0-3.7,0.9-4.8,2.4
		c-3.4,4.5-6.3,9.4-8.7,14.5l-0.5,1.1l-1.2,0.2c-7.8,1.2-23.5,2.7-41.9,2.7c-16.2,0-31-1.2-42.9-3.3l-2.8-0.5l1.2-2.6
		c0.7-1.6,1.3-2.8,1.7-3.9c13-32.2-0.3-59.1-0.8-60.2c-1-2.1-3.1-3.3-5.4-3.3c-1,0-1.9,0.2-2.7,0.7c-1.4,0.7-2.5,2-3,3.5
		c-0.5,1.5-0.4,3.2,0.3,4.6c0.1,0.2,11.3,23.2,0.4,50.2c-11,27.2-39.7,49.1-85.4,65.1c-2.1,0.7-3.6,2.5-4,4.6
		c-5.3,28.7-12.9,62.5-16.8,68.5c-5.8,9-14.6,13.6-26.2,13.6c-3.3,0-6.8-0.4-10.5-1.1c-1.4-0.3-2.5-1.3-2.8-2.8
		c-0.3-1.5,0.2-3,1.4-3.9l20.4-15.3c1.4-1,2.3-2.6,2.4-4.4c0-0.4,3.4-41,8.2-67.3l0.1-0.7l0.6-0.5c6.9-6.2,24.9-23.9,43.2-52.5
		c1.3-2.1,1.3-4.7-0.1-6.7c-22.4-32.2-20.1-78.9-16.8-92.3c0.2-0.7,0.2-1.3,0.2-2c0-0.2-0.5-5.7-3.5-11.2c-4.2-7.7-11.4-12-20.2-12
		c-8.8,0-30.5-1.6-42.3-16.3c-3.5-4.4-4.5-8-4.7-9.3l-0.5-2.5l2.6-0.1c0.2,0,0.4,0,0.6,0c3.9,0,10.6,1.2,15.5,2.1l0.1,0
		c5.6,1,12.6,2.3,19.4,2.8c20.7,1.6,35.4,11.1,40.4,15.9c1.2,1.2,2.7,1.8,4.3,1.8c0.6,0,1.1-0.1,1.7-0.2c2.4-0.7,23.4-6.3,49.8-6.3
		c16.1,0,30.9,2.1,44,6.3c14.5,4.6,30,6.9,47.3,6.9c17.3,0,33.7-2.3,46.8-4.2l0.2,0c9-1.3,16.8-2.4,22.5-2.4c20,0,31.6,6.3,43.9,13
		c12.2,6.6,24.7,13.5,44.5,13.5c10.8,0,23.6-7.8,39-24c2.8-2.9,5.6-6,8.4-9.4l2.8-3.3l5.8,23.2c0.7,2.7,3.1,4.6,5.9,4.6
		c0.5,0,1-0.1,1.5-0.2c1.9-0.5,3.4-1.8,4.1-3.5l1-2.4l2.2,1.5c6.2,4.1,10.3,10.1,11.7,17.5c3.2,16.2,11.3,33,15.9,41.5l0.7,1.3
		l-0.9,1.1c-3.2,4-9.8,10.7-18.5,10.7c-9.1,0-18.9,2.2-29.2,4.5c-11.5,2.6-24.5,5.5-37.9,5.5c-1.5,0-3,0-4.4-0.1l-2.6-0.1l0.5-2.5
		c0.5-2.4-0.5-4.9-2.6-6.2c-1-0.7-2.2-1-3.4-1c-2,0-3.9,1-5,2.7c-26.9,40-66.5,59-68.2,59.7c-1.6,0.7-2.7,2-3.3,3.6l-0.1,0.3
		c-2,5.9-8.9,26.7-15.1,47.4c-4.3,14.1-7.5,25.4-9.5,33.6c-3.3,13.8-4.3,20.2,0.9,23.1c11.9,6.8,14.9,15.5,15.4,21.6l0.2,2.4
		L293.4,413.5L293.4,413.5z"/>
	<path class="lst1" d="M494,206.9c-3.2,4-9.2,9.9-16.8,9.9c-9.3,0-19.2,2.2-29.7,4.6c-12.8,2.9-27,6-41.7,5.3
		c0.6-3.2-0.6-6.6-3.5-8.5c-3.8-2.6-9-1.5-11.5,2.3c-27,40.1-66.9,58.8-67.3,59c-2.1,1-3.7,2.7-4.4,4.9c-0.1,0.2-8,24-15.3,47.8
		c-4.3,14.1-7.5,25.4-9.5,33.8c-3.2,13.3-4.9,21.7,2,25.6c11.1,6.3,13.9,14.4,14.3,19.9h-16.3c-9.6-6.9-18.5-14.9-20.7-18.5
		c0.5-1.8,1.6-4.7,2.7-7.4c4-10.1,9.4-24,5.8-38.6c-4-16.2-13.5-54,7.4-81.4c2.8-3.6,2.1-8.8-1.6-11.6c-3.6-2.8-8.8-2.1-11.6,1.6
		c-3.7,4.8-6.6,9.8-8.9,15c-15.1,2.4-54.4,4.8-84.1-0.7c0.6-1.3,1.2-2.7,1.8-4c13.4-33.1-0.3-60.9-0.9-62c-2.1-4.1-7-5.7-11.1-3.7
		c-4.1,2.1-5.7,7.1-3.7,11.1c0.1,0.2,10.9,22.1,0.3,48.4c-10.7,26.6-39,48-84.1,63.9c-2.8,1-4.9,3.4-5.4,6.3
		c-5.3,28.9-12.9,62.2-16.5,67.7c-6.9,10.8-18.5,14.6-34.5,11.5c-0.2,0-0.9-0.2-1.1-1.1c-0.1-0.5-0.1-1.2,0.6-1.7l20.4-15.3
		c1.9-1.4,3.1-3.6,3.3-5.9c0-0.4,3.5-41.1,8.2-67.1c6.4-5.8,24.9-23.7,43.6-52.9c1.8-2.8,1.7-6.5-0.2-9.2
		c-21.9-31.5-19.7-77.4-16.4-90.5c0.2-0.9,0.3-1.8,0.2-2.8c-0.1-0.6-0.6-6.3-3.8-12.1c-4.6-8.5-12.5-13.2-22.2-13.2
		c-8.5,0-29.3-1.5-40.6-15.4c-2.8-3.4-3.9-6.5-4.3-8.3c3.5-0.1,10.7,1.2,15.7,2.1c6,1.1,12.8,2.3,19.7,2.9c20,1.5,34.3,10.7,39,15.3
		c2.1,2.1,5.3,3,8.2,2.1c0.5-0.1,48.9-13.9,92.5-0.1c35.3,11.2,69.9,6.3,95.1,2.8c9-1.3,16.8-2.4,22.4-2.4
		c19.5,0,30.9,6.2,42.9,12.8c12.4,6.8,25.1,13.7,45.5,13.7c11.4,0,24.7-8.1,40.6-24.7c3.1-3.2,6-6.5,8.5-9.5l4.8,19
		c1.1,4.4,5.6,7.1,10.1,6c2.6-0.7,4.6-2.5,5.6-4.8c4.4,2.9,9.2,7.8,10.8,16.1C481.2,181.5,489.6,198.8,494,206.9z"/>
</g>
<path class="lst2" d="M510.9,203.1c1.5,2.5,1.5,5.7,0.1,8.2c-0.5,0.9-12.5,21.9-33.8,21.9c-7.5,0-16.5,2-26.1,4.2
	c-12.5,2.8-26.2,5.9-41,5.9c-4.9,0-9.9-0.4-15-1.1c-7.7,9.5-15.8,17.6-23.6,24.4c8.2,6.7,29.8,22.3,43.6,32.3
	c13.3,9.6,21,15.2,23.2,17.1c8.8,7.6,12.8,18.7,11.1,31.2c-1.7,12.5-8.8,24.1-17.3,28.2c-3.2,1.5-6.4,2.3-9.6,2.3
	c-4.8,0-9.6-1.7-13.7-5c-7.7-6.1-12.8-17.6-12.8-27.8c-10.3-4.9-41.1-16.7-70.3-27.3c-8.7,27.3-15.9,52.5-17.3,61.8
	c12.2,8.3,16.6,18.6,18.1,26c1.8,8.9-0.1,15.7-0.4,16.5c-1,3.5-4.3,5.9-7.9,5.9h-26.5c-1.7,0-3.4-0.5-4.8-1.5
	c-31.2-22-30.3-31.1-30-34.1c0.4-3.8,2-8,3.9-12.8c3.3-8.5,7.5-19,5.1-28.5c-3.2-12.9-9.4-37.8-4.2-63.1c-9.4,1-22.2,1.8-36,1.8
	c-17.1,0-35.7-1.2-51.4-4.8c-9.7,13.4-23.7,25.2-41.7,35.6l34.3,64.9c11,1.4,35.8,6.8,35.8,25.5v8.8c0,4.6-3.7,8.3-8.3,8.3h-28.4
	c-12.6,0-24.3-5.6-32.2-15.4c-0.1-0.1-0.1-0.1-0.2-0.2l-41.9-55.7c-4,19-9.6,42.7-14.2,49.8c-8.5,13.2-21.9,20.1-38.4,20.1
	c-4.2,0-8.6-0.4-13.2-1.4c-7.1-1.4-12.4-6.6-14-13.7c-1.6-7.1,1-14.3,6.8-18.6l17.4-13.1c1-11.3,4.3-45.5,8.6-67.9
	c0.4-1.9,1.4-3.6,2.8-4.8c0.2-0.2,19.6-16.5,39.6-46.7c-20.9-34.1-20.1-79.5-16.2-97.6c-0.6-3.1-2.5-9-9.3-9
	c-31.4,0-47-13.5-53.5-21.6c-6.3-7.8-9.2-16.7-7.7-23.8c0.7-3.4,3.7-11.2,16.2-11.5c5.4-0.1,11.6,1,18.8,2.3c5.9,1.1,12,2.2,18,2.6
	c23.4,1.8,38.9,11.6,45.7,16.9c13.7-3.3,56.9-11.8,97.7,1.2c31.7,10.1,64.1,5.5,87.7,2.2c9.6-1.4,18-2.5,24.7-2.5
	c23.7,0,38.1,7.9,50.9,14.8c11.5,6.3,21.4,11.7,37.6,11.7c11.4,0,32.4-21.9,44.8-38.6v-15c0-4.6,3.7-8.3,8.3-8.3
	c4.6,0,8.3,3.7,8.3,8.3v16.7l5,20.1c7.4,2.1,25.8,9.7,30.2,32.4C498,181.1,510.7,202.9,510.9,203.1z M477.2,216.8
	c7.6,0,13.6-5.9,16.8-9.9c-4.3-8.1-12.8-25.4-16.1-42.1c-1.6-8.2-6.3-13.2-10.8-16.1c-1,2.3-3,4.2-5.6,4.8c-4.4,1.1-8.9-1.6-10.1-6
	l-4.8-19c-2.5,3-5.4,6.2-8.5,9.5c-15.9,16.6-29.2,24.7-40.6,24.7c-20.4,0-33.2-7-45.5-13.7c-12.1-6.6-23.4-12.8-42.9-12.8
	c-5.6,0-13.4,1.1-22.4,2.4c-25.2,3.6-59.7,8.5-95.1-2.8c-43.5-13.8-92-0.1-92.5,0.1c-2.9,0.9-6,0-8.2-2.1c-4.7-4.6-19-13.7-39-15.3
	c-6.8-0.5-13.6-1.8-19.7-2.9c-5-0.9-12.2-2.2-15.7-2.1c0.3,1.9,1.5,4.9,4.3,8.3c11.3,13.9,32.1,15.4,40.6,15.4
	c9.7,0,17.5,4.7,22.2,13.2c3.2,5.8,3.7,11.4,3.8,12.1c0.1,0.9,0,1.8-0.2,2.8c-3.3,13.1-5.5,59,16.4,90.5c1.9,2.7,2,6.4,0.2,9.2
	c-18.6,29.2-37.2,47.1-43.6,52.9c-4.7,26-8.2,66.7-8.2,67.1c-0.2,2.4-1.4,4.5-3.3,5.9l-20.4,15.3c-0.7,0.5-0.7,1.2-0.6,1.7
	c0.2,0.9,0.9,1,1.1,1.1c15.9,3.2,27.5-0.7,34.5-11.5c3.6-5.6,11.2-38.8,16.5-67.7c0.5-2.9,2.6-5.4,5.4-6.3
	c45.1-15.8,73.4-37.3,84.1-63.9c10.6-26.2-0.2-48.2-0.3-48.4c-2.1-4.1-0.4-9.1,3.7-11.1c4.1-2.1,9.1-0.4,11.1,3.7
	c0.6,1.2,14.3,28.9,0.9,62c-0.6,1.4-1.1,2.7-1.8,4c29.7,5.4,69,3,84.1,0.7c2.3-5.1,5.2-10.1,8.9-15c2.8-3.6,8-4.3,11.6-1.6
	c3.6,2.8,4.3,8,1.6,11.6c-20.9,27.4-11.4,65.2-7.4,81.4c3.7,14.6-1.8,28.5-5.8,38.6c-1,2.6-2.2,5.5-2.7,7.4
	c2.2,3.5,11.2,11.5,20.7,18.5h16.3c-0.4-5.4-3.2-13.5-14.3-19.9c-6.8-3.9-5.2-12.3-2-25.6c2-8.3,5.2-19.7,9.5-33.8
	c7.2-23.8,15.2-47.5,15.3-47.8c0.7-2.2,2.3-3.9,4.4-4.9c0.4-0.2,40.3-18.8,67.3-59c2.6-3.8,7.7-4.8,11.5-2.3
	c2.9,1.9,4.1,5.3,3.5,8.5c14.7,0.7,28.9-2.5,41.7-5.3C458,219,467.9,216.8,477.2,216.8z M433,345.1c0.7-4.8,0.2-11.5-5.5-16.5
	c-1.8-1.6-12.1-9-22.1-16.2c-27.6-19.9-41.2-30-47-35.2c-11,8.1-20.2,13.2-24.8,15.7c-1,3-2,6-3,9c7.3,2.6,22,8,36.5,13.5
	c12,4.6,21.5,8.3,28.3,11.2c4.2,1.8,7.4,3.2,9.7,4.4c2.7,1.4,9.1,4.7,7.6,11.5c-1,4.7,1.6,13.4,6.4,17.2c2,1.6,3.7,1.8,5.9,0.7
	C427.3,359.4,431.9,353.3,433,345.1z M185.9,411.3v-0.6c0-4.1-13.8-8.6-25.1-9.4c-2.9-0.2-5.4-1.9-6.8-4.4L117.7,328
	c-6.4,3-13.2,5.9-20.4,8.6l49.3,65.6c4.7,5.8,11.7,9.1,19.2,9.1L185.9,411.3L185.9,411.3L185.9,411.3z"/>
</svg>
