<?xml version="1.0" encoding="utf-8"?>
<!-- Generator: Adobe Illustrator 24.3.0, SVG Export Plug-In . SVG Version: 6.00 Build 0)  -->
<svg version="1.1" id="Layer_1" width="50" xmlns="http://www.w3.org/2000/svg" xmlns:xlink="http://www.w3.org/1999/xlink" x="0px" y="0px"
	 viewBox="0 0 512 512" style="enable-background:new 0 0 512 512;" xml:space="preserve">
<style type="text/css">
	.mlst0{fill:#F2E4DC;}
	.mlst1{fill:#282828;}
	.mlst2{fill:#F1D0BA;}
</style>
<g>
	<path class="mlst0" d="M78.6,360.5c-1.8,0-3.3-1.3-3.5-3.1l-0.5-3.3l16-3.3c0.2,0,0.4-0.1,0.6-0.1c1.1,0,2.1,0.7,2.6,1.8l3,8
		L78.6,360.5L78.6,360.5z"/>
	<path class="mlst0" d="M91.7,353.3l1.9,5h-15c-0.7,0-1.2-0.5-1.3-1.1l-0.2-1.2l14-2.9C91.4,353,91.6,353.1,91.7,353.3z"/>
</g>
<path class="mlst1" d="M511.5,222.2c0.6,1.7,0.7,3.5,0.1,5.2c-6.5,21-12,22.4-14.7,23.1c-1.6,0.4-5.1,0.7-8.3,0.7
	c-2.8,1.8-6.6,3.3-11,3.3c-4.2,0-9.1-1.4-14.2-5.1c-9.3-6.7-15.1-7.3-21.7-7.3c-0.3,0-1.4,0.2-2.2,0.3c-3.4,0.5-9.8,1.5-16.8,0.1
	c-1,8.8-3.2,24.3-8.1,45.7c0.4,5.5,8.7,27.8,17,47.9l6-0.5c10.6-0.8,20.4,5.2,24.4,15.1l5.2,12.7c1,2.6,0.7,5.5-0.8,7.8
	c-1.5,2.3-4.1,3.7-6.9,3.7h-44.2c-1.7,0-3.4-0.5-4.7-1.5c-20.6-14.4-40.8-37.3-59.9-67.9c-2.2-3.5-4.2-6.9-6.1-10.2c0,0,0,0,0,0
	c-7.1-0.1-14-0.3-20.7-0.6l-17.2,40c0,0,0.1,0,0.1,0c9.3,0,18,5.9,21.1,15.2l4.7,14.2c0.8,2.5,0.4,5.3-1.1,7.5
	c-1.6,2.2-4.1,3.5-6.7,3.5h-33.2c-3.1,0-6-1.8-7.4-4.6l-17.7-35.4c-0.8-1.6-1.1-3.5-0.7-5.3l7.9-39.7c-20.8-3-39.1-7-54.3-11.1
	c-3,18.8-12.8,38.4-16.5,45.2l1.8,13.2l8.9-1c7.4-0.8,14.4,3.2,17.3,10l7.4,17.1c1.1,2.6,0.9,5.5-0.7,7.9c-1.5,2.3-4.1,3.7-6.9,3.7
	h-27.6c-2.2,0-4.3-0.9-5.9-2.4l-35.4-35.4c-1.6-1.5-2.4-3.7-2.4-5.9c0-23.2-6.1-39.6-10.3-48.3c-18.8,15.9-39.4,27.7-51.3,34.6
	c-2.1,1.2-3.9,2.3-5.4,3.1c-6.9,4.1-10.3,11.5-12,17.7l7.5-1.6c8.3-1.7,16.5,2.8,19.5,10.7l6.2,16.2c1,2.6,0.6,5.4-0.9,7.7
	c-1.5,2.2-4.1,3.6-6.8,3.6h-27c-8.8,0-16.5-6.6-17.7-15.4l-7.7-53.7c-0.3-2.2,0.3-4.5,1.6-6.2c0.3-0.4,33.7-44.2,33.7-83.4V201
	c-13.7,21-21.5,46.4-27.9,70.4c-11.3,42.4-28.2,57.8-40.6,69.1c-2.1,1.9-4.1,3.7-5.8,5.4c-1.6,1.6-3.7,2.4-5.9,2.4s-4.2-0.8-5.9-2.4
	c-3.2-3.2-3.2-8.5,0-11.7c2-2,4.1-4,6.4-6c11.5-10.4,25.7-23.4,35.7-61.1c5.9-22.3,13.7-48,26.9-70.1c14.6-24.6,33.5-41.1,57.8-50.5
	c37.6-14.6,102-3.8,144.6,3.4c15.5,2.6,28.9,4.9,35.3,4.9c14.3,0,18.5-1.8,21.6-3.2c2.5-1.1,5.4-2.3,10.1-2.3c5.7,0,10.5,2.2,14.4,4
	c2.8,1.3,5.5,2.5,7.3,2.3c1.8-0.2,6.1-1.1,10.6-2.2c12.5-2.9,31.1-7.1,49.1-7.4c1.4-2.4,3-4.7,5-6.6c2.4-2.3,6-2.9,9-1.6
	c1.4,0.6,11.4,5.2,17.8,14c21.8,4.7,35.7,17.9,39.4,25.3C500,190.3,511,220.9,511.5,222.2z M491,234.6c1.1-2,2.6-5.7,3.9-9.4
	c-2.8-7.8-11.3-30.5-16.3-40.7c-0.8-1.7-8.2-10.4-22.6-15c-0.9,0.7-1.9,1.3-3,1.6c-4.4,1.3-9-1.2-10.3-5.7c-1-3.5-4.2-6.6-7.2-8.9
	c-2.1,5.2-3,12.1-3.1,15.6c-0.1,4.5-3.8,8.1-8.3,8.1c-0.1,0-0.1,0-0.2,0c-4.6-0.1-8.2-3.9-8.1-8.5c0-0.9,0.1-4.4,0.9-9
	c-14.5,0.9-29.5,4.4-39.9,6.7c-5.8,1.3-9.9,2.3-12.8,2.5c-6.2,0.6-11.5-1.8-15.7-3.7c-2.8-1.3-5.4-2.5-7.5-2.5c-1.2,0-1.6,0.2-3.5,1
	c-4.2,1.8-10.5,4.6-28.2,4.6c-7.8,0-21.1-2.2-38-5.1c-40.8-6.9-102.5-17.3-135.9-4.3c-11.9,4.6-21.7,11.1-30.1,18.9v35.3
	c0,39.1-27,79.6-35,90.7l1.5,10.8c3-4.3,6.9-8.2,12.1-11.3c1.5-0.9,3.4-2,5.6-3.2c16.9-9.7,51.9-29.8,71.6-56.5
	c2.4-3.3,6.8-4.3,10.4-2.5c0.6,0.3,63.4,31.5,163.9,34.3c-4.5-8.7-7-14.3-7.2-14.7c-1.8-4.2,0.1-9.1,4.3-10.9
	c4.2-1.8,9.1,0.1,10.9,4.3c0.3,0.7,30.8,69.1,74.7,101.2h29.3l-0.5-1.3c-1.3-3.1-4.4-5.1-7.8-4.8l-11.9,0.9c-3.5,0.3-6.9-1.7-8.3-5
	c-22.6-53.2-20.9-60.6-20.4-63c7.1-30.7,8.5-49.3,8.6-51.4c-3.3-3.6-6.2-8.3-8.4-14.8c-1.5-4.3,0.8-9,5.2-10.5
	c4.3-1.5,9,0.8,10.5,5.2c4.9,14.2,12.9,14.1,22.8,12.6c1.8-0.3,3.3-0.5,4.8-0.5c10.5,0,19.4,1.7,31.4,10.4c4.6,3.3,6.6,1.2,6.7,1.1
	c2-2.2,4.9-3.1,7.8-2.6C488.3,234.7,489.8,234.7,491,234.6z M313.1,358.3L312,355c-0.9-2.8-3.9-4.4-6.7-3.6l-10.6,2.8
	c0,0-0.1,0-0.1,0l2,4.1L313.1,358.3L313.1,358.3z M286.7,338.6l19.4-45.1c-5.5-0.4-10.9-1-16.1-1.6l-7.6,38.1L286.7,338.6z
	 M217.9,358.3l-2.4-5.5c-0.1-0.1-0.2-0.2-0.3-0.2l-13.1,1.5l4.2,4.2L217.9,358.3L217.9,358.3z M186.9,318.2
	c0.1-0.3,13.7-24.2,16.2-44.2c-15.5-4.8-26.7-9.4-33.1-12.2c-2.7,3.3-5.5,6.4-8.5,9.4c4.9,8.8,13.6,28.1,14.3,56.4l12.4,12.4
	l-2.3-16.6C185.6,321.7,186,319.8,186.9,318.2z M93.6,358.3l-1.9-5c-0.1-0.2-0.3-0.4-0.6-0.3l-14,2.9l0.2,1.2
	c0.1,0.7,0.7,1.1,1.3,1.1H93.6L93.6,358.3z"/>
<g>
	<path class="mlst0" d="M417.2,360.5l-0.6-0.4c-44.2-32.3-75.1-101.4-75.4-102.1c-1-2.2-3.2-3.6-5.6-3.6c-0.8,0-1.7,0.2-2.4,0.5
		c-3.1,1.3-4.5,5-3.1,8l0.1,0.1c1.9,4.2,4.4,9.3,7,14.4l1.7,3.3l-3.8-0.1c-101.5-2.9-164.2-34.2-164.8-34.6
		c-0.9-0.4-1.8-0.7-2.7-0.7c-1.9,0-3.8,0.9-4.9,2.5c-19.9,27-55.2,47.3-72.2,57.1l-0.3,0.2c-2,1.2-3.8,2.2-5.3,3.1
		c-4.4,2.6-8.3,6.2-11.4,10.7l-3.2,4.6l-2.4-17.2l0.5-0.7c8.1-11.3,34.6-51,34.6-89.4V180l0.7-0.7c9-8.4,19.3-14.9,30.8-19.4
		c10.8-4.2,25.5-6.3,43.7-6.3c31,0,67.1,6.1,93.4,10.5c16.8,2.8,30.1,5.1,37.7,5.1c17.2,0,23.3-2.6,27.3-4.4c2-0.8,2.7-1.2,4.4-1.2
		c2.6,0,5.4,1.3,8.5,2.7c3.8,1.7,8,3.6,12.9,3.6c0.6,0,1.2,0,1.7-0.1c2.8-0.3,7.1-1.2,12.5-2.5c10.1-2.3,25.5-5.8,40.2-6.8l2.8-0.2
		l-0.5,2.8c-0.7,4.1-0.8,7.4-0.9,8.7c-0.1,3.3,2.6,6.1,6,6.2h0.1c3.3,0,6-2.7,6.1-6c0.1-3.1,0.8-10.4,3.2-16.4l1.1-2.6l2.3,1.7
		c3,2.2,6.8,5.7,8,10c0.7,2.6,3.1,4.4,5.8,4.4c0.6,0,1.1-0.1,1.7-0.2c0.8-0.2,1.6-0.6,2.2-1.2l0.9-0.8l1.2,0.4
		c14.4,4.6,22.6,13.5,23.9,16.2c5,10,13.2,31.9,16.4,40.9l0.3,0.7l-0.3,0.7c-1.3,3.9-2.9,7.6-4.1,9.8l-0.6,1.1l-1.2,0.1
		c-0.7,0-1.4,0-2,0c-0.7,0-1.3,0-1.7-0.1l-0.1,0l-0.1,0c-0.4-0.1-0.8-0.1-1.2-0.1c-1.7,0-3.4,0.7-4.5,2l-0.1,0.1
		c-0.4,0.4-1.6,1.4-3.6,1.4c-1.8,0-3.8-0.8-5.9-2.3c-11.5-8.3-20.1-10-30.1-10c-1.4,0-2.8,0.2-4.4,0.5c-2.2,0.3-4.9,0.7-7.4,0.7
		c-8.8,0-14.3-4.6-17.8-14.8c-0.8-2.5-3.1-4.1-5.7-4.1c-0.7,0-1.3,0.1-2,0.3c-1.5,0.5-2.8,1.6-3.5,3.1c-0.7,1.5-0.8,3.1-0.3,4.6
		c1.9,5.7,4.6,10.4,7.9,14l0.6,0.7l-0.1,0.9c-0.1,2-1.5,20.7-8.7,51.8c-1.7,7.6,10.1,37.7,20.2,61.6c1,2.2,3.2,3.7,5.6,3.7
		c0.2,0,0.3,0,0.5,0l11.9-0.9c0.3,0,0.5,0,0.8,0c4,0,7.6,2.4,9.2,6.2l1.8,4.4H417.2L417.2,360.5L417.2,360.5z"/>
</g>
<g>
	<path class="mlst2" d="M295.1,360.5l-3.9-7.8l2.5-0.6l0,0l10.8-2.8c0.6-0.2,1.3-0.3,2-0.3c3.4,0,6.4,2.1,7.4,5.3l2,6.2H295.1
		L295.1,360.5z"/>
	<path class="mlst2" d="M312,355l1.1,3.3h-16.5l-2-4.1c0,0,0.1,0,0.1,0l10.6-2.8C308.1,350.6,311,352.2,312,355z"/>
	<path class="mlst2" d="M280.1,330.3l8.2-40.8l2,0.2c5.2,0.6,10.6,1.1,16,1.6l3.1,0.2l-22.5,52.3L280.1,330.3z"/>
	<path class="mlst2" d="M306.1,293.5l-19.4,45.1l-4.3-8.6L290,292C295.2,292.5,300.6,293.1,306.1,293.5z"/>
	<path class="mlst2" d="M205.4,360.5l-8.1-8.1l17.8-2l0.1,0c0.9,0,1.8,0.5,2.2,1.4l3.8,8.6H205.4L205.4,360.5z"/>
	<path class="mlst2" d="M215.5,352.8l2.4,5.5h-11.5l-4.2-4.2l13.1-1.5C215.4,352.7,215.5,352.7,215.5,352.8z"/>
	<path class="mlst2" d="M173.6,328.7l0-0.9c-0.6-27.7-9.1-46.6-14-55.4l-0.8-1.5l1.2-1.2c3-3,5.8-6.2,8.4-9.3l1.1-1.3l1.5,0.7
		c6.6,2.9,17.6,7.4,32.8,12.1l1.8,0.5l-0.2,1.8c-2.5,20.2-15.9,44-16.5,45c-0.7,1.2-0.9,2.5-0.8,3.9l3.2,23.1L173.6,328.7z"/>
	<path class="mlst2" d="M203.1,274c-2.5,20-16.1,43.9-16.2,44.2c-0.9,1.6-1.3,3.4-1,5.3l2.3,16.6l-12.4-12.4
		c-0.7-28.3-9.4-47.7-14.3-56.4c3-3,5.8-6.2,8.5-9.4C176.4,264.7,187.6,269.2,203.1,274z"/>
</g>
</svg>
