<?xml version="1.0" encoding="utf-8"?>
<!-- Generator: Adobe Illustrator 24.3.0, SVG Export Plug-In . SVG Version: 6.00 Build 0)  -->
<svg version="1.1" id="Layer_1" width="50" xmlns="http://www.w3.org/2000/svg" xmlns:xlink="http://www.w3.org/1999/xlink" x="0px" y="0px"
	 viewBox="0 0 512 512" style="enable-background:new 0 0 512 512;" xml:space="preserve">
<style type="text/css">
	.st0{fill:#7C8789;}
	.st1{fill:#9EA8AA;}
	.st2{fill:#282828;}
</style>
<g>
	<path class="st0" d="M333.5,297.6l0.6-1.5c2-4.7,4.4-11.5,4.4-17.2l0-1.1l0.8-0.7c5.7-4.6,11.3-9.6,16.4-14.9l0.5-0.5l0.7-0.1
		c1-0.2,2.4-0.4,3.9-0.6l3.3-0.6l-0.8,3.3c-1.6,6.4-4.3,16.4-7.1,26c-0.5,1.7-0.2,3.5,0.7,5l25.2,39.7l-3.3,2.9L333.5,297.6z"/>
	<path class="st0" d="M355.2,295.8l25.2,39.7L336.2,297c2.2-5.1,4.6-12.1,4.5-18c5.5-4.4,11-9.4,16.6-15.1c1.1-0.2,2.4-0.4,3.9-0.6
		c-1.7,6.8-4.5,17-7.1,25.9C353.5,291.4,353.9,293.8,355.2,295.8z"/>
	<path class="st0" d="M28.3,342.2l4.6-26.7l1.1-0.5c18.2-8.3,43-23.8,57.9-49.8l1.8-3.2l2,3.1c3.2,5,7,10,11.2,14.6l1.2,1.4
		l-1.1,1.5c-5.2,6.6-21,23.7-56.8,38.6c-1.7,0.7-1.7,0.7-7.8,8.9c-2.8,3.8-6.5,8.8-10.2,13.8L28.3,342.2z"/>
	<path class="st0" d="M93.8,266.3c3.3,5.1,7.1,10.1,11.4,14.9c-5,6.5-20.6,23.2-55.9,37.9c-2.2,0.9-2.2,0.9-8.7,9.7
		c-2.8,3.8-6.5,8.8-10.2,13.8l4.4-25.5C53.7,308.5,78.7,292.8,93.8,266.3z"/>
</g>
<g>
	<path class="st1" d="M130.6,342.6l16-40.1c1.1-2.8,0-6-2.6-7.5c-2.1-1.2-50-29.9-50-74.3c0-3.4-2.7-6.1-6.1-6.1s-6.1,2.7-6.1,6.1
		c0,8.7,1.6,17.5,4.7,26.2l0.3,0.8l-0.3,0.8c-13.6,34.2-47.3,51.8-66.2,59.2l-4.8,1.9l1.9-4.7c3-7.5,7.8-14.4,13-21.7
		c6.6-9.4,14.1-20,19-33.8c22.1-62.1,87.2-75.6,102.1-75.6c14,0,29.6,1.1,47.6,2.3l0.1,0c22,1.5,47,3.2,75.1,3.2
		c20.8,0,45.4-7.2,71.3-14.8c23.1-6.7,47-13.7,70-16.3l2.3-0.3l0.1,2.3c0.1,1.5,0.7,2.9,1.8,4c1.1,1.2,2.7,1.8,4.3,1.8
		s3.2-0.6,4.3-1.8l8.9-8.9l7.6-7.6v5c0.1,0.2,0.1,0.4,0.2,0.7l0.1,0.1c0.2,0.5,0.6,1,1,1.5l0.2,0.2l24.8,24.9v15.2
		c0,1.6,0.6,3.2,1.8,4.3l21.3,21.3L479,220.9c-0.7,0.5-1.6,0.8-2.5,0.8c-0.7,0-1.4-0.2-2.1-0.5c-17-8.9-29.4-14.7-34.8-16.3
		c-0.6-0.2-1.1-0.2-1.7-0.2c-2.7,0-5.1,1.8-5.8,4.4c-0.9,3.2,0.9,6.6,4.1,7.6c0.5,0.1,1.2,0.4,2.1,0.7l4.3,1.6l-3.9,2.4
		c-36.7,22.3-84.1,28.5-86.1,28.8c-1.4,0.2-2.7,0.8-3.7,1.9c-26.9,28.8-54.5,38-64.9,41.5c-1.6,0.5-2.7,0.9-3.6,1.2
		c-1.8,0.7-3.2,2.2-3.7,4.1c-3.8,14.3-14.4,26.7-23.2,36l-5.8,6.1l13.9-55.4l0.3-0.4c3.9-5,16.9-23.1,17.9-46.4
		c0.1-3.4-2.5-6.2-5.8-6.3l-0.2,0c-3.3,0-6,2.6-6.1,5.8c-0.8,17.9-10.2,32.6-14.3,38.1l-0.6,0.8l-0.9,0.1c-9.9,1.3-21.6,2-33,2
		c-9.7,0-18.8-0.5-26.4-1.4l-2.2-0.3l0.3-2.2c0.5-3.3,0.7-6.7,0.7-10.1c0-21.5-18.1-46.8-18.9-47.8c-1.1-1.6-3-2.5-4.9-2.5
		c-1.3,0-2.5,0.4-3.6,1.2c-2.7,2-3.3,5.8-1.3,8.5c4.6,6.3,16.5,25.9,16.5,40.7c0,19.6-8.6,30.6-18.5,43.4
		c-7.9,10.2-16.9,21.8-20.1,38.4l-0.7,3.7L130.6,342.6z"/>
	<path class="st1" d="M443.1,144.5c0.3,0.7,0.8,1.4,1.3,2c0.1,0.1,0.1,0.1,0.2,0.2c0.1,0.1,0.1,0.1,0.2,0.2l24.1,24.1v14.3
		c0,2.2,0.9,4.3,2.4,5.9l19.4,19.4l-12.9,8.6c-0.7,0.5-1.6,0.5-2.3,0.1c-12.2-6.4-28.1-14.4-35.2-16.5c-4.4-1.3-9,1.2-10.3,5.6
		c-1.3,4.4,1.2,9,5.6,10.3c0.6,0.2,1.2,0.4,2,0.7c-36.5,22.2-84.7,28.4-85.3,28.5c-1.9,0.2-3.7,1.1-5,2.6
		c-26.5,28.4-53.8,37.5-64,40.9c-1.5,0.5-2.7,0.9-3.7,1.3c-2.5,1-4.3,3-5,5.6c-3.6,13.3-13.4,25.3-22.6,35.1l11.7-46.8
		c4.3-5.5,17.4-23.9,18.4-47.7c0.2-4.6-3.4-8.4-7.9-8.6c-4.6-0.2-8.4,3.4-8.6,7.9c-0.8,17.4-9.9,31.5-13.8,36.8
		c-18.8,2.4-42.3,2.6-58.8,0.5c0.5-3.3,0.7-6.8,0.7-10.5c0-22.3-18.5-48-19.3-49.1c-2.7-3.7-7.9-4.5-11.6-1.8
		c-3.7,2.7-4.5,7.9-1.8,11.6c4.5,6.2,16.1,25.2,16.1,39.4c0,18.8-8.4,29.6-18,42c-8.2,10.5-17.3,22.2-20.5,39.4l-5.1-4.3l15.4-38.6
		c1.5-3.8,0-8.2-3.6-10.3c-0.5-0.3-48.9-28.5-48.9-72.4c0-4.6-3.7-8.3-8.3-8.3c-4.6,0-8.3,3.7-8.3,8.3c0,9.1,1.7,18.1,4.9,26.9
		c-13.3,33.5-46.4,50.7-65,57.9c2.9-7.2,7.6-13.9,12.7-21.2c6.7-9.5,14.2-20.3,19.3-34.3c21.7-60.9,85.4-74.1,100-74.1
		c14,0,29.5,1.1,47.5,2.3c22.2,1.5,47.3,3.2,75.2,3.2c21.1,0,45.8-7.2,71.9-14.9c23.1-6.7,46.8-13.7,69.6-16.2
		c0.1,2,0.9,3.9,2.4,5.4c1.6,1.6,3.7,2.4,5.9,2.4s4.2-0.8,5.9-2.4l8.8-8.8l3.8-3.8c0,0,0,0.1,0,0.1c0.1,0.4,0.2,0.8,0.4,1.1
		C443,144.3,443.1,144.4,443.1,144.5z"/>
</g>
<path class="st2" d="M509.6,205.9c1.8,1.8,2.6,4.2,2.4,6.7c-0.2,2.5-1.6,4.7-3.6,6.1L487,232.9c-3.2,2.1-6.8,3.2-10.5,3.2
	c-3,0-6-0.7-8.7-2.1c-4.5-2.4-8.7-4.5-12.5-6.4c-24.4,17.4-55.1,27.1-76.2,32.1c-0.2,1.4-0.6,2.8-0.9,4.3c-0.7,3.1-1.8,7.3-3.2,12.4
	c-1.4,5.2-2.9,10.5-3.8,13.8l57.5,90.3h13.1c4.6,0,8.3,3.7,8.3,8.3s-3.7,8.3-8.3,8.3h-17.7c-2.8,0-5.5-1.4-7-3.8l-5.2-8.2
	l-91.3-79.5c-2.9-2.5-3.7-6.7-1.9-10.1c0.3-0.7,0.7-1.3,1-2c-13.2,7.6-24.2,11.4-30.4,13.4c-6.6,19.1-21.6,34.2-32.7,45.4
	c-3.9,3.9-8.7,8.8-9.9,10.9v17.3h9.4c4.6,0,8.3,3.7,8.3,8.3s-3.7,8.3-8.3,8.3h-17.7c-4.6,0-8.3-3.7-8.3-8.3v-35.4
	c0-0.7,0.1-1.3,0.2-2l14.8-59.1c-8.5,0.8-17.4,1.2-26.1,1.2c-11.1,0-21.9-0.6-30.7-1.9c-4.3,10.1-10.5,18.2-16.3,25.6
	c-9.7,12.4-18,23.2-18.3,42l25.7,21.4h14.7c4.6,0,8.3,3.7,8.3,8.3s-3.7,8.3-8.3,8.3h-17.7c-1.9,0-3.8-0.7-5.3-1.9L118,350.8
	c-2.8-2.3-3.7-6.1-2.4-9.5l15.2-37.9c-3.6-2.4-8.4-6-13.6-10.6c-7.4,9-24.6,25.8-59.4,40.6c-4.3,5.8-19.5,26.4-29.8,40.5l3.2,6.3
	h12.6c4.6,0,8.3,3.7,8.3,8.3s-3.7,8.3-8.3,8.3H26c-3.1,0-6-1.8-7.4-4.6l-8.8-17.7c-0.8-1.6-1.1-3.4-0.8-5.1l7.9-45.5
	c-3.7,1.2-6.1,1.8-6.6,1.9c-0.6,0.2-1.3,0.2-1.9,0.2c-1.9,0-3.8-0.7-5.3-1.9c-2-1.7-3.1-4.2-3-6.8c1-17.6,10-30.4,18.7-42.8
	c6.4-9.1,12.9-18.4,17.2-30.3c10.5-29.5,31.4-53.3,60.3-68.8c24.2-12.9,46.8-16.3,55.3-16.3c14.6,0,31.1,1.1,48.7,2.3
	c21.9,1.5,46.8,3.2,74.1,3.2c18.8,0,42.3-6.9,67.3-14.2c28.9-8.4,58.7-17.2,87.9-17.8l15.3-15.3c2.4-2.4,5.9-3.1,9-1.8
	c3.1,1.3,5.1,4.3,5.1,7.7v14.3l24.1,24.1c1.6,1.5,2.4,3.7,2.4,5.9v14.3L509.6,205.9z M477.8,219.1l12.9-8.6l-19.4-19.4
	c-1.6-1.5-2.4-3.7-2.4-5.9V171l-24.1-24.1c-0.1-0.1-0.1-0.1-0.2-0.2c-0.1-0.1-0.1-0.1-0.2-0.2c-0.6-0.6-1-1.3-1.3-2
	c0-0.1-0.1-0.1-0.1-0.2c-0.2-0.4-0.3-0.7-0.4-1.1c0,0,0-0.1,0-0.1l-3.8,3.8l-8.8,8.8c-1.6,1.6-3.7,2.4-5.9,2.4s-4.2-0.8-5.9-2.4
	c-1.5-1.5-2.3-3.4-2.4-5.4c-22.8,2.5-46.5,9.5-69.6,16.2c-26.1,7.6-50.8,14.9-71.9,14.9c-27.9,0-53-1.7-75.2-3.2
	c-18-1.2-33.5-2.3-47.5-2.3c-14.6,0-78.3,13.2-100,74.1c-5,14-12.6,24.8-19.3,34.3c-5.1,7.3-9.8,14-12.7,21.2
	c18.6-7.3,51.7-24.5,65-57.9c-3.2-8.8-4.9-17.9-4.9-26.9c0-4.6,3.7-8.3,8.3-8.3s8.3,3.7,8.3,8.3c0,43.9,48.4,72.1,48.9,72.4
	c3.6,2.1,5.1,6.4,3.6,10.3L133.2,342l5.1,4.3c3.3-17.2,12.3-28.8,20.5-39.4c9.7-12.5,18-23.2,18-42c0-14.1-11.6-33.2-16.1-39.4
	c-2.7-3.7-1.9-8.9,1.8-11.6c3.7-2.7,8.9-1.9,11.6,1.8c0.8,1.1,19.3,26.8,19.3,49.1c0,3.7-0.3,7.2-0.7,10.5c16.5,2.1,40,1.9,58.8-0.5
	c3.9-5.3,13.1-19.5,13.8-36.8c0.2-4.6,4.1-8.1,8.6-7.9c4.6,0.2,8.1,4.1,7.9,8.6c-1,23.8-14,42.2-18.4,47.7l-11.7,46.8
	c9.2-9.7,19.1-21.7,22.6-35.1c0.7-2.6,2.6-4.6,5-5.6c1-0.4,2.2-0.8,3.7-1.3c10.2-3.4,37.5-12.5,64-40.9c1.3-1.4,3.1-2.3,5-2.6
	c0.5-0.1,48.7-6.3,85.3-28.5c-0.8-0.3-1.4-0.5-2-0.7c-4.4-1.3-6.9-5.9-5.6-10.3c1.3-4.4,5.9-6.9,10.3-5.6
	c7.1,2.1,23.1,10.1,35.2,16.5C476.2,219.6,477.1,219.5,477.8,219.1z M380.4,335.5l-25.2-39.7c-1.3-2-1.6-4.5-1-6.8
	c2.6-8.9,5.4-19.1,7.1-25.9c-1.5,0.3-2.9,0.5-3.9,0.6c-5.6,5.8-11.1,10.8-16.6,15.1c0,5.9-2.4,12.9-4.5,18L380.4,335.5z
	 M105.3,281.2c-4.4-4.8-8.2-9.8-11.4-14.9c-15.1,26.5-40.2,42.2-58.9,50.8l-4.4,25.5c3.7-5.1,7.4-10,10.2-13.8
	c6.4-8.7,6.4-8.7,8.7-9.7C84.7,304.4,100.2,287.7,105.3,281.2z"/>
</svg>
