<svg height="50" viewBox="0 0 128 128" width="50" xmlns="http://www.w3.org/2000/svg"><g><ellipse cx="24.709" cy="74.014" fill="#ffca28" rx="18.403" ry="29.03"/><ellipse cx="62.747" cy="28.467" fill="#ffca28" rx="8.415" ry="3.511"/><path d="m70.806 27.456a1.721 1.721 0 0 1 .359 1.011c0 1.939-3.768 3.511-8.416 3.511-4.171 0-7.623-1.267-8.29-2.928h-.008l5.323 15.95c1.2 2.709 5.25 4.375 11.726 4.375s11.726-1.964 11.726-4.375z" fill="#9b6e42"/><path d="m103.291 44.984h-20.073l.008.011c0 2.416-5.25 4.375-11.726 4.375s-10.529-1.67-11.726-4.37v-.011h-35.065c10.164 0 18.4 13 18.4 29.03s-8.238 29.028-18.4 29.03h78.58c10.163 0 18.4-13 18.4-29.03s-8.235-29.035-18.398-29.035z" fill="#9b6e42"/><g><path d="m22.974 76.206a1.75 1.75 0 0 0 -3.489.284c.391 4.8 2.071 9.932 5.615 9.932a1.772 1.772 0 0 0 1.779-1.746 1.721 1.721 0 0 0 -1.72-1.746c-.433-.161-1.811-2.13-2.185-6.724z"/><path d="m19.763 69.441a1.75 1.75 0 1 0 3.451.584c.522-3.084 1.47-4.5 1.887-4.751.68.393 2.209 3.364 2.209 8.814a1.75 1.75 0 0 0 3.5 0c0-5.941-1.787-12.334-5.71-12.334-2.565 0-4.511 2.802-5.337 7.687z"/><path d="m32.028 64.1a1.75 1.75 0 0 0 3.293-1.186 19.941 19.941 0 0 0 -3.484-6.255 1.75 1.75 0 1 0 -2.66 2.275 16.742 16.742 0 0 1 2.851 5.166z"/><path d="m16.78 81.98a30.738 30.738 0 0 1 -1.007-7.966c0-9.517 4.092-17.557 8.936-17.557a1.75 1.75 0 0 0 0-3.5c-6.974 0-12.436 9.249-12.436 21.057a34.216 34.216 0 0 0 1.127 8.874 1.75 1.75 0 1 0 3.38-.908z"/><path d="m37.146 74.014a1.75 1.75 0 0 0 -3.5 0c0 9.516-4.093 17.556-8.937 17.556-2.229 0-4.477-1.829-6.169-5.018a1.75 1.75 0 0 0 -3.092 1.641c2.353 4.435 5.642 6.877 9.261 6.877 6.974 0 12.437-9.249 12.437-21.056z"/><path d="m49.563 101.294h-4.5a1.75 1.75 0 1 0 0 3.5h4.5a1.75 1.75 0 0 0 0-3.5z"/><path d="m36.408 101.294h-2.382a24.061 24.061 0 0 0 5.362-6.224h24.612a1.75 1.75 0 0 0 0-3.5h-22.752a39.5 39.5 0 0 0 2.873-9.31h10.328a1.75 1.75 0 0 0 0-3.5h-9.827a47.018 47.018 0 0 0 .24-4.746c0-1.251-.055-2.482-.15-3.694h48.327a1.75 1.75 0 0 0 0-3.5h-48.739c-1.374-8.728-5.187-16.02-10.274-20.087h24.737c1.968 2.837 6.418 4.387 12.737 4.387.335 0 .671-.008 1.007-.018h.011.018c5.195-.163 10.436-1.558 11.975-4.368h6.829a1.75 1.75 0 0 0 0-3.5h-7.217l-11.889-16.79c-.023-.033-.053-.058-.078-.089-1.6-2.072-5.517-3.149-9.409-3.149-5.051 0-10.165 1.807-10.165 5.261a3.294 3.294 0 0 0 .244 1.246l4.515 13.52h-32.632c-11.109 0-20.152 13.809-20.152 30.781s9.04 30.78 20.152 30.78h11.7a1.75 1.75 0 0 0 0-3.5zm25-56.941-3.774-11.291a19.246 19.246 0 0 0 5.113.666c.074 0 .148 0 .222-.005l6.731 13.847c-4.394-.246-7.437-1.407-8.295-3.217zm12.179 3.193-6.906-14.2a10.826 10.826 0 0 0 4.737-2l9.872 13.942c-.727.759-3.425 1.953-7.706 2.258zm-10.84-20.84c3.959 0 6.216 1.174 6.619 1.739 0 .007.007.015.012.022v.005c-.328.494-2.133 1.479-5.292 1.706a1.825 1.825 0 0 0 -.245.009c-.355.021-.711.041-1.1.041-4.005 0-6.276-1.2-6.639-1.761.369-.557 2.64-1.761 6.645-1.761zm-54.69 47.308c0-15.043 7.47-27.281 16.652-27.281s16.653 12.238 16.653 27.281a38.37 38.37 0 0 1 -4.27 18.216 1.765 1.765 0 0 0 -.278.489c-3.038 5.274-7.339 8.575-12.1 8.575-9.187 0-16.657-12.238-16.657-27.28z"/><path d="m48.984 54.03a1.75 1.75 0 0 0 0 3.5h15.016a1.75 1.75 0 0 0 0-3.5z"/><path d="m75.568 54.03a1.75 1.75 0 0 0 0 3.5h6.078a1.75 1.75 0 0 0 0-3.5z"/><path d="m113.7 80.51a1.751 1.751 0 0 0 -1.75-1.75h-40.787a1.75 1.75 0 0 0 0 3.5h40.789a1.75 1.75 0 0 0 1.748-1.75z"/><path d="m118.7 93.816a41.4 41.4 0 0 0 4.74-19.8 46.546 46.546 0 0 0 -.331-5.521 1.64 1.64 0 0 0 -.035-.3 39.921 39.921 0 0 0 -3.774-12.847 1.723 1.723 0 0 0 -.352-.684c-3.7-6.967-9.341-11.431-15.657-11.431h-4.274a1.75 1.75 0 0 0 0 3.5h4.274c4.368 0 8.346 2.774 11.32 7.3h-22.369a1.75 1.75 0 1 0 0 3.5h24.306a36.406 36.406 0 0 1 2.8 9.29h-9.848a1.75 1.75 0 0 0 0 3.5h10.287c.1 1.209.156 2.44.156 3.694a38.836 38.836 0 0 1 -3.92 17.556h-13.117a1.75 1.75 0 0 0 0 3.5h10.961c-2.878 3.887-6.564 6.224-10.576 6.224h-45.491a1.75 1.75 0 0 0 0 3.5h45.49c5.961 0 11.324-3.977 15.017-10.282a1.74 1.74 0 0 0 .393-.699z"/><path d="m86.529 91.57a1.75 1.75 0 0 0 0 3.5h6.51a1.75 1.75 0 0 0 0-3.5z"/></g></g></svg>